<svg xmlns="http://www.w3.org/2000/svg" width="154" height="111">
  <defs>
    <linearGradient id="a" x1="0%" x2="99.492%" y1="50.147%" y2="50.147%">
      <stop offset="0%" stop-color="#94632D"/>
      <stop offset="18%" stop-color="#FDD491"/>
      <stop offset="30%" stop-color="#FDD491"/>
      <stop offset="45%" stop-color="#E9BA65"/>
      <stop offset="65%" stop-color="#94632D"/>
      <stop offset="81%" stop-color="#E9BA65"/>
      <stop offset="100%" stop-color="#94632D"/>
    </linearGradient>
    <linearGradient id="b" x1="0%" x2="100%" y1="50%" y2="50%">
      <stop offset="0%" stop-color="#94632D"/>
      <stop offset="18%" stop-color="#FDD491"/>
      <stop offset="30%" stop-color="#FDD491"/>
      <stop offset="45%" stop-color="#E9BA65"/>
      <stop offset="65%" stop-color="#94632D"/>
      <stop offset="81%" stop-color="#E9BA65"/>
      <stop offset="100%" stop-color="#94632D"/>
    </linearGradient>
    <linearGradient id="c" x1="0%" x2="100.51%" y1="50%" y2="50%">
      <stop offset="0%" stop-color="#94632D"/>
      <stop offset="18%" stop-color="#FDD491"/>
      <stop offset="30%" stop-color="#FDD491"/>
      <stop offset="45%" stop-color="#E9BA65"/>
      <stop offset="65%" stop-color="#94632D"/>
      <stop offset="81%" stop-color="#E9BA65"/>
      <stop offset="100%" stop-color="#94632D"/>
    </linearGradient>
    <linearGradient id="d" x1="0%" x2="100%" y1="50.172%" y2="50.172%">
      <stop offset="0%" stop-color="#94632D"/>
      <stop offset="18%" stop-color="#FDD491"/>
      <stop offset="30%" stop-color="#FDD491"/>
      <stop offset="45%" stop-color="#E9BA65"/>
      <stop offset="65%" stop-color="#94632D"/>
      <stop offset="81%" stop-color="#E9BA65"/>
      <stop offset="100%" stop-color="#94632D"/>
    </linearGradient>
    <linearGradient id="e" x1="0%" x2="100%" y1="50.147%" y2="50.147%">
      <stop offset="0%" stop-color="#94632D"/>
      <stop offset="18%" stop-color="#FDD491"/>
      <stop offset="30%" stop-color="#FDD491"/>
      <stop offset="45%" stop-color="#E9BA65"/>
      <stop offset="65%" stop-color="#94632D"/>
      <stop offset="81%" stop-color="#E9BA65"/>
      <stop offset="100%" stop-color="#94632D"/>
    </linearGradient>
    <linearGradient id="f" x1="0%" x2="100%" y1="50%" y2="50%">
      <stop offset="0%" stop-color="#94632D"/>
      <stop offset="18%" stop-color="#FDD491"/>
      <stop offset="30%" stop-color="#FDD491"/>
      <stop offset="45%" stop-color="#E9BA65"/>
      <stop offset="65%" stop-color="#94632D"/>
      <stop offset="81%" stop-color="#E9BA65"/>
      <stop offset="100%" stop-color="#94632D"/>
    </linearGradient>
    <linearGradient id="g" x1="0%" x2="100%" y1="50%" y2="50%">
      <stop offset="0%" stop-color="#94632D"/>
      <stop offset="18%" stop-color="#FDD491"/>
      <stop offset="30%" stop-color="#FDD491"/>
      <stop offset="45%" stop-color="#E9BA65"/>
      <stop offset="65%" stop-color="#94632D"/>
      <stop offset="81%" stop-color="#E9BA65"/>
      <stop offset="100%" stop-color="#94632D"/>
    </linearGradient>
    <linearGradient id="h" x1="0%" x2="100%" y1="-1686.471%" y2="-1686.471%">
      <stop offset="0%" stop-color="#94632D"/>
      <stop offset="18%" stop-color="#FDD491"/>
      <stop offset="30%" stop-color="#FDD491"/>
      <stop offset="45%" stop-color="#E9BA65"/>
      <stop offset="65%" stop-color="#94632D"/>
      <stop offset="81%" stop-color="#E9BA65"/>
      <stop offset="100%" stop-color="#94632D"/>
    </linearGradient>
    <linearGradient id="i" x1="0%" x2="100%" y1="50%" y2="50%">
      <stop offset="0%" stop-color="#94632D"/>
      <stop offset="18%" stop-color="#FDD491"/>
      <stop offset="30%" stop-color="#FDD491"/>
      <stop offset="45%" stop-color="#E9BA65"/>
      <stop offset="65%" stop-color="#94632D"/>
      <stop offset="81%" stop-color="#E9BA65"/>
      <stop offset="100%" stop-color="#94632D"/>
    </linearGradient>
    <linearGradient id="j" x1="-.013%" x2="99.981%" y1="50%" y2="50%">
      <stop offset="0%" stop-color="#94632D"/>
      <stop offset="18%" stop-color="#FDD491"/>
      <stop offset="30%" stop-color="#FDD491"/>
      <stop offset="45%" stop-color="#E9BA65"/>
      <stop offset="65%" stop-color="#94632D"/>
      <stop offset="81%" stop-color="#E9BA65"/>
      <stop offset="100%" stop-color="#94632D"/>
    </linearGradient>
    <linearGradient id="k" x1="0%" x2="100%" y1="50.147%" y2="50.147%">
      <stop offset="0%" stop-color="#94632D"/>
      <stop offset="18%" stop-color="#FDD491"/>
      <stop offset="30%" stop-color="#FDD491"/>
      <stop offset="45%" stop-color="#E9BA65"/>
      <stop offset="65%" stop-color="#94632D"/>
      <stop offset="81%" stop-color="#E9BA65"/>
      <stop offset="100%" stop-color="#94632D"/>
    </linearGradient>
    <linearGradient id="l" x1="-.009%" x2="100.01%" y1="49.988%" y2="49.988%">
      <stop offset="0%" stop-color="#94632D"/>
      <stop offset="18%" stop-color="#FDD491"/>
      <stop offset="30%" stop-color="#FDD491"/>
      <stop offset="45%" stop-color="#E9BA65"/>
      <stop offset="65%" stop-color="#94632D"/>
      <stop offset="81%" stop-color="#E9BA65"/>
      <stop offset="100%" stop-color="#94632D"/>
    </linearGradient>
    <linearGradient id="m" x1=".002%" x2="99.995%" y1="49.939%" y2="49.939%">
      <stop offset="0%" stop-color="#94632D"/>
      <stop offset="18%" stop-color="#FDD491"/>
      <stop offset="30%" stop-color="#FDD491"/>
      <stop offset="45%" stop-color="#E9BA65"/>
      <stop offset="65%" stop-color="#94632D"/>
      <stop offset="81%" stop-color="#E9BA65"/>
      <stop offset="100%" stop-color="#94632D"/>
    </linearGradient>
    <linearGradient id="o" x1=".009%" x2="100.004%" y1="50.01%" y2="50.01%">
      <stop offset="0%" stop-color="#94632D"/>
      <stop offset="18%" stop-color="#FDD491"/>
      <stop offset="30%" stop-color="#FDD491"/>
      <stop offset="45%" stop-color="#E9BA65"/>
      <stop offset="65%" stop-color="#94632D"/>
      <stop offset="81%" stop-color="#E9BA65"/>
      <stop offset="100%" stop-color="#94632D"/>
    </linearGradient>
    <linearGradient id="n" x1="-.157%" x2="100.171%" y1="50.01%" y2="50.01%">
      <stop offset="0%" stop-color="#94632D"/>
      <stop offset="18%" stop-color="#FDD491"/>
      <stop offset="30%" stop-color="#FDD491"/>
      <stop offset="45%" stop-color="#E9BA65"/>
      <stop offset="65%" stop-color="#94632D"/>
      <stop offset="81%" stop-color="#E9BA65"/>
      <stop offset="100%" stop-color="#94632D"/>
    </linearGradient>
  </defs>
  <g fill="none" fill-rule="evenodd">
    <g fill-rule="nonzero">
      <path fill="url(#a)" d="M66.504 23.819h1.353v2.328h-1.353z" transform="translate(23.3 15.557)"/>
      <path fill="url(#b)" d="M66.167 27.479h1.346v2.335h-1.346z" transform="translate(23.3 15.557)"/>
      <path fill="url(#c)" d="M63.468 27.479h1.346v2.335h-1.346z" transform="translate(23.3 15.557)"/>
      <path fill="url(#d)" d="M71.566 27.479h1.003v1.999h-1.003z" transform="translate(23.3 15.557)"/>
      <path fill="url(#e)" d="M87.733 27.15H86.05v2.321l1.683.007z" transform="translate(23.3 15.557)"/>
      <path fill="url(#f)" d="M84.031 17.836h1.01v1.332h-1.01z" transform="translate(23.3 15.557)"/>
      <path fill="url(#g)" d="M45.302 24.155h1.346v1.992h-1.346z" transform="translate(23.3 15.557)"/>
      <path fill="url(#h)" d="M63.805 23.819h-1.346v2.335h1.353z" transform="translate(23.3 15.557)"/>
      <path fill="url(#i)" d="M13.468 28.805h1v1.346h-1z" transform="translate(23.3 15.557)"/>
      <path fill="url(#j)" d="M.02 29.134c1.134.543 2.301 1.12 3.517 1.718 1.058.522 2.164 1.064 3.331 1.627v-.975l3.874-4.272 6.325-.233 4.829 5.185H37.15l.673 1.168-1.312 1.909-1.6-.776-.31.66-1.229-.695-.323-.384-1.188.597-.597-.714-1.072 1.071-2.15-.116-1.188-.955-1.195.714-15.412-.583a157.212 157.212 0 0 0 15.914 6.366c1.387.474 4.43 1.257 7.197 1.655a6.162 6.162 0 0 1 1.058-1.648c1.497-1.628 2.94-1.758 4.821-1.758H69.41c2.109 0 4.664.817 5.639 3.036l.384-.07c11.546-2.609 20.955-7.327 28.517-11.119 1.895-.947 3.715-1.86 5.46-2.685l-.069-.034-1.813.494-.735.666-1.531-.501-1.168-1.607-2.012-.02-1.518 1.764-1.587-.075-.762 2.17-1.745-.748-.384-6.422.666-.666-6.065-5.99v-1.661s0 .11.344 0c-.117-.777-.24-2.679-1.34-3.331-.137.034-.164-1.1-.308-1.113-.131 0-.193 1.03-.33 1.113-1.27.734-1.408 3.33-1.408 3.33l.288-.013-.02 1.662-.99-1.511L84.74 0l-2.487 15.886-.666 1.332.33.33v2.995l-4.719-3.325s-3.983.048-9.038.103c-.055 0 0-1.435-.055-1.435-.192 0-.79-.426-1.016 0-.124.24.116 1.45 0 1.45-5.138.054-11.113.123-15.09.17-.089 0 .014-1.284-.068-1.284-.158 0-.818-.336-1.017 0-.178.316.103 1.292-.027 1.292-2.047.027-3.338.04-3.338.04l-1.683 1.333H27.85l-3.365 2.995-.399 1.112.42.255-.021.631-.488-.048-.075.042-4.588-.426V22.32h-.914v.907L15.007 23l-4.554 3.819-2.562 2.672-.631-.426-.797.426-.117.33-.852-.33-.851.33-.914.899-1.593-1.23L0 29.122l.034.013H.021ZM82.35 17.17h5.391v.666l-4.718 4.327-.673-.996V17.17Zm.336 6.655v-.659l8.09-.33 2.356 1.663.337 5.659h-.666l-.337-1.662-.343-1.003-1.01.337-.673-.337s-.22-.55-.33 0c-.116.556.22.392 0 .673-.233.275-.343.666-.343.666s.344.605 0 .996c-.336.385-.336.33-.336.33v.33s.226.061 0 .33c-.227.274-.33 0-.33.336v1.332s-.57.158-.68.33c-.11.165-.343.33-.343.33s.116.11-.33 0l-1.346-.33h-.337l-3.709.996-1.353-1.25v-4.74l-3.701-3.997h5.391-.007Zm-38.077-2.994h3.373l1.813 2.864 19.746-.2-2.02 3.325 7.411.336 1.683-1.998.68 2.328s.336 3.99 0 3.99h-6.408s.137-.412-.11-.762c-.083-.117-.42-.117-.543-.24-.199-.227-.055-.721-.693-.653-.24.028-.22.46-.33.7-.09.173-.337.118-.398.317-.083.254-.165.501-.289.652-.124.144-.666-.529-.762-.37-.426.81-.536 1.737-.563 1.916-.028.178-3.064.226-2.706.79l-16.539.487-1.545-1.071-.955.583-1.552-1.18-1.6 1.18-.048-10.322 2.355-2.665v-.007Zm-13.234 2.624 2.506 5.13-3.578-3.338 1.072-1.786v-.006ZM24.69 22.43l.989-.92 2.898-.028 1.044 1.676-.336.996-4.595-.281v-1.45.007Z" transform="translate(23.3 15.557)"/>
      <path fill="url(#k)" d="M51.676 27.816h1.346v2.328h-1.346zM57.404 27.816h1.346v2.328h-1.346z" transform="translate(23.3 15.557)"/>
      <path fill="url(#g)" d="M57.067 24.155h1.346v1.992h-1.346z" transform="translate(23.3 15.557)"/>
    </g>
    <path fill="url(#l)" d="M107.019 15.275s-.048-.83-.206-1.257c-.055-.171.068-.213.103-.474.055-.37.103-.961.103-.961.027.226.068.817.117.954.123.323.178.124.178.42-.014.212-.075.157-.117.33-.103.446-.178.995-.178.995M72.623 9.327c.035 0 .062.007.069.035l.192.55s.048.054.076.054h.192c.035 0 .055-.027.041-.055l-.824-2.198s-.041-.055-.082-.055h-.426c-.041 0-.055.042-.014.076.048.02.124.103.076.22l-.735 1.957s.014.055.041.055h.192s.062-.027.076-.055l.192-.55s.028-.034.062-.034h.872Zm-.762-.268c-.041 0-.055-.02-.041-.054l.281-.783.076-.248s.014-.027.02-.027c.014 0 .021.007.028.027l.069.248.281.783s0 .054-.04.054h-.674Zm2.452-1.339s-.055-.055-.09-.055h-.398c-.041 0-.048.041 0 .069.048.02.11.062.11.213v1.971s.028.055.062.055h.179s.054-.028.054-.055V8.112s.007-.02.021 0l.117.226.927 1.58s.062.055.09.055h.226s.055-.028.055-.055V7.72s-.02-.055-.055-.055h-.179s-.055.028-.055.055v1.546l.014.26s-.02.028-.027 0l-.117-.233-.927-1.58-.007.007Zm2.678 0s-.061-.055-.089-.055h-.391c-.042 0-.062.041-.007.069.048.02.117.062.117.213v1.971s.027.055.061.055h.172c.041 0 .062-.028.062-.055V8.373l-.014-.261s.028-.02.035 0l.116.226.934 1.58s.055.055.083.055h.233s.055-.028.055-.055V7.72s-.027-.055-.055-.055h-.185s-.062.028-.055.055v1.8s-.014.027-.028 0l-.123-.234-.92-1.58v.014Zm4.554 1.1c0-.667-.536-1.203-1.188-1.203a1.19 1.19 0 0 0-1.181 1.202c0 .666.535 1.195 1.18 1.195.646 0 1.189-.536 1.189-1.195m-.288 0c0 .515-.399.934-.9.934-.502 0-.893-.419-.893-.934 0-.515.405-.94.893-.94.487 0 .9.418.9.94M63.31 15.11c.09.096.24.096.33 0l.323-.323c.068-.068.164-.068.164.062v7.02c0 .116.104.22.22.22h.694a.225.225 0 0 0 .233-.22v-8.744c0-.11-.096-.22-.233-.22h-.453c-.24 0-.24.014-.392.172l-1.305 1.285c-.09.089-.09.24 0 .322l.426.42-.007.006Zm12.102.976c.117-1.841-1.27-3.366-3.153-3.366a3.16 3.16 0 0 0-3.159 3.16 3.158 3.158 0 0 0 3.16 3.152c.631 0 1.222-.2 1.716-.536.09-.062.172-.013.158.11l-.04.742c-.063 1.099-1.08 1.937-2.164 1.868a2.034 2.034 0 0 1-1.278-.55c-.103-.11-.213-.123-.33-.027l-.467.419a.215.215 0 0 0-.02.316c.529.529 1.23.838 2.026.893 1.717.103 3.249-1.195 3.358-2.953l.186-3.228m-5.165-.2c0-1.167.893-2.115 2.012-2.115 1.12 0 2.013.948 2.013 2.115 0 1.168-.907 2.102-2.013 2.102-1.105 0-2.012-.94-2.012-2.102m8.613-.776c.103.096.24.096.336 0l.316-.323c.076-.068.165-.068.165.062v7.02c0 .116.103.22.227.22h.693c.13 0 .234-.104.234-.22v-8.744c0-.11-.096-.22-.234-.22h-.453c-.24 0-.24.014-.391.172l-1.312 1.285c-.09.089-.09.24 0 .322l.419.42v.006Zm5.35 6.765c0 .117.103.22.227.22h5.281c.13 0 .24-.103.24-.22v-.604c0-.137-.11-.24-.24-.24h-3.736c-.103 0-.151-.103-.069-.179l2.356-2.315c.838-.824 1.69-1.662 1.69-2.94a2.881 2.881 0 0 0-2.878-2.877c-1.587 0-2.74 1.16-2.85 2.638-.014.178.034.24.212.24h.68c.186 0 .227-.041.248-.24.103-.893.83-1.594 1.703-1.594.948 0 1.724.824 1.724 1.834 0 .55-.24 1.092-.618 1.49l-3.826 3.785c-.158.158-.158.171-.158.398v.604h.014ZM42.534 4.04c-.014-.055-.069-.096-.123-.076l-.619.151c-.075.014-.075.097.007.13.096.035.248.083.316.344l.605 2.466c.11.446-.13.907-.536 1.01-.31.075-.618-.076-.797-.344-.041-.055-.096-.075-.158-.034l-.274.165a.117.117 0 0 0-.035.15 1.31 1.31 0 0 0 1.38.55c.701-.171 1.12-.9.942-1.62l-.708-2.878v-.014Zm4.609 2.08c.075-.013.096 0 .137.042l.563.934c.035.048.11.083.172.076l.35-.076c.062-.014.083-.075.048-.117l-2.362-3.722c-.028-.048-.103-.082-.172-.076l-.79.172c-.075.014-.09.103 0 .13a.323.323 0 0 1 .213.385l-.584 3.894c0 .055.041.097.103.09l.35-.076c.07-.014.124-.082.124-.13l.144-1.086c.014-.061.042-.075.103-.089l1.587-.343.014-.007Zm-1.511-.185c-.069.014-.103-.02-.09-.089l.206-1.538.035-.502s.014-.034.034-.034c.014 0 .034 0 .048.02l.234.44.81 1.319c.041.062.02.103-.048.117l-1.23.267Zm6.394-3.818c-.014-.055-.062-.103-.124-.09l-.316.055c-.055.014-.103.076-.089.124l.467 2.617c.11.632-.282 1.236-.865 1.34-.584.109-1.154-.33-1.264-.962l-.467-2.61a.11.11 0 0 0-.13-.083l-.626.11c-.061.007-.089.09 0 .13.09.035.24.097.282.358l.398 2.177c.165.913 1.017 1.532 1.896 1.367.886-.151 1.47-1.037 1.305-1.944l-.467-2.59Zm2.486-.385a.296.296 0 0 0-.185-.09l-.721.11c-.076.015-.097.09 0 .131.082.042.233.11.267.371l.522 3.66c.014.056.07.104.117.09l.33-.048c.062 0 .103-.062.09-.124l-.413-2.87-.096-.474c0-.035.041-.048.069-.02l.274.39 2.143 2.686c.041.055.124.09.186.082l.419-.061c.061 0 .096-.062.096-.117l-.584-4.087c0-.055-.069-.096-.117-.089l-.33.048c-.068.007-.11.062-.096.117l.412 2.884.097.468c0 .048-.035.061-.055.034l-.289-.399-2.136-2.692Zm7.267.344A1.353 1.353 0 0 0 60.28.88l-1.607.178c-.075.007-.096.096 0 .13a.452.452 0 0 1 .268.385l.412 3.675c0 .055.062.096.117.089l.33-.034c.055 0 .103-.062.089-.11l-.158-1.408c0-.055.034-.11.096-.117l.762-.082a1.368 1.368 0 0 0 1.195-1.505m-2.012 1.086c-.055 0-.103-.042-.117-.103l-.158-1.477c-.006-.062.028-.117.083-.124l.769-.082c.453-.055.852.295.9.762.055.474-.268.893-.708.941l-.769.09v-.007Zm3.654 1.648c0 .062.055.103.117.096l.33-.027c.061 0 .11-.055.096-.117L63.606.66c-.007-.062-.049-.103-.124-.096l-.625.061c-.076 0-.103.09-.007.13.09.042.234.118.247.386l.33 3.674Zm2.28-.192c0 .055.055.103.11.103l2.225-.151c.055 0 .103-.055.103-.103l-.02-.282c0-.062-.062-.11-.124-.11l-1.669.117c-.062 0-.11-.034-.117-.103l-.24-3.627c0-.054-.048-.096-.117-.096l-.625.035c-.075.007-.103.089-.007.13.083.041.227.124.248.392l.24 3.695h-.007ZM71.456.447a1.301 1.301 0 0 0-1.024-.42c-.68.028-1.215.537-1.188 1.134.055 1.305 2.02.88 2.06 2.026a.813.813 0 0 1-.775.845c-.392.014-.763-.282-.893-.625-.028-.062-.076-.09-.13-.069l-.31.124c-.048.02-.096.09-.062.144.22.557.77.955 1.408.927.749-.034 1.333-.645 1.305-1.366-.034-.728-.57-1.044-1.167-1.285-.33-.144-.88-.295-.907-.735-.014-.322.295-.61.68-.625.247 0 .446.11.598.24.048.042.103.083.171.015l.213-.179c.041-.028.062-.103.028-.151m7.294.92c0-.748-.612-1.36-1.353-1.367H75.79c-.076-.006-.097.07-.021.117.082.055.22.144.213.405l-.02 3.695c0 .055.047.103.11.103h.322c.062 0 .117-.04.117-.103V2.81c.007-.068.048-.103.11-.103h.762c.742 0 1.367-.597 1.367-1.339m-2.13.838c-.061 0-.102-.048-.102-.11V.612c.006-.062.054-.117.116-.117h.763c.446 0 .81.398.803.865 0 .481-.37.859-.81.859l-.77-.014Zm3.448 2.06c0 .062.055.11.11.117h.323c.069 0 .117-.04.117-.103L80.72.165c.007-.062-.041-.103-.103-.116l-.632-.014c-.076 0-.103.075-.02.13.082.055.212.145.212.405l-.11 3.689v.007Zm2.267.076c-.007.048.048.11.096.117l2.225.103a.106.106 0 0 0 .11-.096l.02-.275c0-.062-.047-.117-.102-.124L83 3.984c-.055 0-.096-.048-.096-.11l.055-1.243c0-.062.048-.11.117-.103l1.346.069c.055 0 .11-.042.116-.103l.014-.282c0-.055-.048-.11-.103-.11l-1.353-.069c-.062 0-.103-.061-.103-.116L83.05.756c.014-.062.076-.103.117-.103l1.676.09c.062 0 .11-.042.116-.104l.021-.281c0-.055-.048-.103-.11-.11L82.35.124c-.076 0-.103.069-.028.13.083.056.213.145.192.413l-.185 3.688.007-.014ZM87.39.51c-.035-.062-.103-.117-.165-.124L86.497.33c-.076-.014-.11.069-.028.13.076.056.2.159.186.42l-.295 3.68c-.014.056.034.11.089.11l.33.028c.068 0 .116-.041.116-.096l.234-2.891.02-.481c0-.035.042-.035.062 0l.179.44 1.504 3.09c.027.062.096.117.165.117l.419.041c.061 0 .116-.041.116-.096l.337-4.107a.118.118 0 0 0-.103-.117L89.505.57c-.075 0-.123.042-.123.097l-.234 2.891v.48s-.055.042-.076 0l-.185-.452L87.39.495v.014ZM95.74 3.42c.145-1.237-.728-2.356-1.957-2.493-1.216-.145-2.328.748-2.473 1.978-.144 1.236.735 2.355 1.951 2.5 1.223.144 2.328-.749 2.48-1.985m-.523-.062c-.123.968-.968 1.655-1.902 1.552-.92-.11-1.58-.982-1.47-1.95.11-.962.955-1.656 1.889-1.546.934.11 1.593.976 1.483 1.944m1.862-1.916a.1.1 0 0 0-.124.082l-.041.289c0 .061.034.11.09.116l1.022.158c.049 0 .103.062.09.124l-.536 3.571a.105.105 0 0 0 .082.13l.33.042c.062.007.117-.027.124-.096l.542-3.565c.007-.061.062-.103.117-.089l1.03.158c.048 0 .11-.034.11-.09L99.972 2c0-.055-.034-.11-.09-.117l-2.801-.426v-.013Zm5.728 4.114c.068 0 .096.027.116.089l.165 1.078a.183.183 0 0 0 .124.13l.357.063c.069.013.11-.028.096-.09l-.783-4.333c-.007-.055-.068-.117-.137-.13l-.797-.145c-.075-.014-.123.062-.041.123.082.07.165.24.055.44l-2.006 3.38c-.027.047-.013.109.055.123l.344.062c.075.006.15-.028.171-.076l.543-.955c.027-.048.062-.055.13-.048l1.594.296.014-.007Zm-1.326-.756c-.075-.007-.082-.048-.062-.117l.783-1.346.213-.44s.028-.027.055-.02c0 0 .028.02.028.041l.055.495.254 1.525c.013.075-.014.103-.09.096l-1.236-.227v-.007Zm4.135 2.425c.013.089.02.116.116.123l.207.048c.089.021.116 0 .164-.075l2.336-3.73c.027-.04.006-.096-.062-.116l-.364-.076c-.09-.02-.103-.014-.151.076l-1.58 2.596-.234.433s-.027.02-.048.02c-.013 0-.02-.014-.027-.041l-.034-.488-.399-3.015c-.014-.09-.041-.117-.123-.13l-.605-.124c-.069-.02-.11.062-.027.124.089.068.206.22.247.446l.584 3.922v.007Zm5.309.089c.068.014.096.034.11.096l.11 1.078c0 .055.048.124.11.138l.357.082c.061.014.096-.02.096-.082l-.515-4.361c0-.062-.055-.124-.13-.138l-.777-.192c-.076-.014-.124.062-.048.123.075.07.151.248.027.44l-2.204 3.249c-.028.048-.007.11.062.123l.343.083c.062.013.144-.02.158-.069l.597-.913c.035-.049.062-.062.145-.035l1.566.378h-.007Zm-1.278-.831c-.055-.014-.082-.055-.04-.117l.85-1.291.248-.44s.027-.027.041-.02c.02 0 .041.02.041.041l.021.495.158 1.538c0 .076-.02.103-.096.09l-1.23-.303.007.007Z" transform="translate(1)"/>
    <path fill="url(#m)" fill-rule="nonzero" d="M23.88 68.578c.646 0 1.175.516 1.175 1.154v13.132c0 3.75-3.125 6.806-6.978 6.806-2.967 0-5.66-1.881-6.56-4.574a1.152 1.152 0 0 1 .063-.906c.137-.275.37-.467.659-.557l2.081-.625c.096-.04.24-.075.378-.075.446 0 .845.295 1.05.79.392 1.133 1.347 1.909 2.322 1.909 1.353 0 2.459-1.236 2.459-2.768V71.8c0-.749-.24-1.25-.735-1.553-.515-.288-.611-.734-.529-1.037.103-.384.46-.632.88-.632h3.729m22.72 19.45c.116.303.089.612-.083.86-.179.26-.488.398-.838.398h-2.418c-.604 0-1.257-.453-1.415-.996l-1.497-4.018c-.055-.151-.075-.206-.467-.206H33.31c-.384 0-.398.034-.46.2l-1.449 4.038c-.213.563-.804.982-1.38.982h-2.473c-.37 0-.694-.144-.872-.405a.89.89 0 0 1-.083-.852l6.195-15.838c.303-.776.138-1.696-.213-1.964-.37-.296-.522-.687-.398-1.044s.495-.598.934-.598h4.883c.612 0 1.237.44 1.443 1.017l7.156 18.434v-.007Zm-7.796-8.042s-.014-.068-.055-.164l-1.587-4.375-.556-2.06-.536 2.025-1.607 4.41a.777.777 0 0 0-.034.178h4.223c.076 0 .124-.007.145-.02m44.87-11.408h-2.295c-.33 0-.638.13-.865.37a1.09 1.09 0 0 0-.295.783l.034 10.825.165 1.325-.577-1.312-6.84-11.064c-.303-.46-.894-.927-1.546-.927H67.52c-.432 0-.783.247-.893.631-.082.31.021.75.536 1.038.495.302.735.803.735 1.552v16.373c0 .598.522 1.12 1.12 1.12h2.218c.639 0 1.174-.515 1.174-1.12V77.35l-.171-1.326.57 1.312 6.82 11.051c.281.453.879.907 1.49.907h2.528c.604 0 1.12-.522 1.12-1.12v-18.44c0-.612-.523-1.155-1.12-1.155m12.362 0c3.97 0 7.198 3.064 7.198 6.834 0 3.77-3.228 6.84-7.198 6.84h-2.671c-.124 0-.289.063-.303.269v5.652c0 .605-.535 1.12-1.174 1.12h-2.246c-.597 0-1.126-.522-1.126-1.12V71.806c0-.748-.234-1.256-.742-1.559-.515-.295-.611-.734-.529-1.044.096-.377.453-.631.886-.631h7.905m0 9.615c1.47 0 2.658-1.243 2.658-2.775 0-1.531-1.195-2.774-2.658-2.774h-2.671c-.22 0-.303.192-.303.364v4.835c0 .165.076.357.303.357h2.671m12.335-9.616h-3.722c-.433 0-.783.248-.886.632-.076.31.027.749.536 1.037.5.303.741.804.741 1.553v16.373c0 .598.522 1.12 1.127 1.12h2.211c.646 0 1.175-.515 1.175-1.12v-18.44c0-.64-.53-1.155-1.175-1.155m16.93 16.656h-7.15c-.206 0-.302-.097-.302-.296V69.732c0-.632-.529-1.147-1.181-1.147h-3.778c-.432 0-.776.248-.886.632-.075.31.021.749.536 1.044.515.31.763.824.763 1.552v16.374c0 .597.521 1.12 1.126 1.12h10.879c.646 0 1.181-.516 1.181-1.12v-1.758c0-.653-.522-1.182-1.181-1.182m16.078-2.17c0-3.722-2.857-5.446-5.652-6.628-1.745-.741-3.386-1.449-3.386-2.548 0-.886.982-1.634 2.15-1.634.94 0 1.717.55 2.087 1.01.371.473.742.576 1.003.576.261 0 .502-.096.742-.275l1.442-1.14c.254-.15.433-.432.502-.762.061-.316 0-.611-.179-.859-1.154-1.586-3.352-2.61-5.598-2.61-3.674 0-6.662 2.549-6.662 5.694 0 3.517 2.816 4.767 5.31 5.852 1.977.879 3.695 1.634 3.695 3.33 0 1.395-1.216 2.57-2.658 2.57-1.353 0-2.63-1.038-3.105-2.528-.178-.515-.563-.838-1.03-.838-.117 0-.24.028-.35.062l-2.136.735c-.296.09-.53.281-.667.556a1.11 1.11 0 0 0-.061.9c.954 3.043 3.983 5.178 7.349 5.178 3.976 0 7.211-2.98 7.211-6.641m-2.974 7.342a3.08 3.08 0 0 1 3.07 3.077 3.057 3.057 0 0 1-3.07 3.056c-1.696 0-3.077-1.373-3.077-3.056a3.09 3.09 0 0 1 3.077-3.077m-1.483 1.765c-.31.35-.502.81-.502 1.312 0 .556.248 1.065.618 1.422V92.28a.433.433 0 0 1-.116-.103m3.008 2.555c.281-.336.453-.769.453-1.236 0-.611-.275-1.154-.714-1.518.2.247.33.57.33.92 0 .399-.193.797-.502 1.072l.433.755M63.29 68.585h-2.226c-.645 0-1.174.515-1.174 1.154 0 1.964 0 3.922.014 5.886 0 1.958.013 3.922.013 5.88 0 2.28-1.751 4.134-3.914 4.134-2.164 0-3.847-1.848-3.847-4.135V69.732c0-.638-.528-1.154-1.18-1.154h-3.778c-.426 0-.783.248-.886.632-.083.31.013.749.528 1.037.516.316.763.825.763 1.553v9.608c0 4.567 3.77 8.29 8.4 8.29 4.629 0 8.454-3.723 8.454-8.29V69.725c0-.638-.529-1.153-1.174-1.153" transform="translate(1)"/>
    <path fill="#FFF" fill-rule="nonzero" d="M25.705 68.867v13.132c0 3.75-3.132 6.806-6.978 6.806-2.967 0-5.66-1.875-6.553-4.574a1.17 1.17 0 0 1 .062-.914c.138-.267.371-.467.66-.549l2.08-.632a1.03 1.03 0 0 1 .378-.069c.447 0 .845.303 1.051.79.399 1.133 1.353 1.903 2.322 1.903 1.36 0 2.458-1.237 2.458-2.768V70.934c0-.748-.24-1.257-.735-1.552-.515-.295-.61-.728-.528-1.044.096-.378.453-.632.879-.632h3.722c.653 0 1.182.522 1.182 1.154v.007Zm21.538 18.297c.117.302.09.618-.082.865-.186.254-.488.405-.845.405h-2.418c-.604 0-1.243-.46-1.408-1.003l-1.504-4.01c-.055-.152-.075-.213-.46-.213H33.96c-.385 0-.405.04-.46.212l-1.45 4.039c-.22.563-.81.982-1.38.982h-2.48c-.37 0-.686-.151-.871-.412a.902.902 0 0 1-.076-.859l6.195-15.83c.302-.777.144-1.697-.206-1.972-.378-.295-.522-.687-.398-1.05.123-.358.501-.598.934-.598h4.883c.611 0 1.23.433 1.435 1.016l7.157 18.434v-.006Zm-7.802-8.036s-.007-.069-.048-.172l-1.587-4.375-.55-2.053-.535 2.026-1.6 4.416a.502.502 0 0 0-.041.178h4.217c.082 0 .123-.013.144-.02Zm44.87-11.415h-2.295c-.33 0-.645.13-.858.371-.213.22-.31.508-.296.776l.035 10.824.164 1.333-.576-1.312-6.841-11.065c-.302-.46-.893-.934-1.539-.934h-3.921c-.426 0-.783.254-.886.632-.083.316.02.756.536 1.044.487.295.734.804.734 1.552v16.367c0 .597.522 1.12 1.127 1.12h2.218c.639 0 1.175-.516 1.175-1.12V76.477l-.172-1.326.577 1.312 6.82 11.058c.275.446.879.9 1.483.9h2.528c.597 0 1.12-.523 1.12-1.12V68.853c0-.611-.523-1.154-1.12-1.154l-.014.014Zm19.573 6.834c0 3.77-3.235 6.834-7.204 6.834h-2.672c-.124 0-.282.075-.295.274v5.653c0 .604-.543 1.12-1.182 1.12h-2.239c-.604 0-1.126-.523-1.126-1.12V70.94c0-.749-.24-1.257-.742-1.552-.515-.295-.604-.728-.529-1.044.096-.378.46-.632.886-.632h7.892c3.976 0 7.204 3.063 7.204 6.834h.007Zm-4.546 0c0-1.525-1.182-2.768-2.658-2.768h-2.672c-.22 0-.295.192-.295.357v4.835c0 .158.075.35.295.35h2.672c1.476 0 2.658-1.243 2.658-2.774Zm9.67-6.834h-3.716c-.44 0-.79.254-.893.632-.082.316.02.755.536 1.044.495.295.742.803.742 1.552v16.367c0 .597.522 1.12 1.126 1.12h2.212c.638 0 1.188-.516 1.188-1.12V68.86c0-.632-.529-1.154-1.188-1.154l-.007.007Zm16.937 16.655h-7.164c-.192 0-.295-.096-.295-.302V68.86c0-.632-.522-1.154-1.175-1.154h-3.77c-.433 0-.783.254-.886.632-.076.316.014.756.529 1.044.515.31.769.817.769 1.552v16.374c0 .597.522 1.12 1.12 1.12h10.878c.646 0 1.182-.516 1.182-1.12v-1.765c0-.646-.53-1.182-1.182-1.182l-.006.007Zm16.078-2.17c0-3.73-2.857-5.446-5.653-6.635-1.737-.741-3.386-1.449-3.386-2.548 0-.886.976-1.634 2.143-1.634.941 0 1.71.55 2.088 1.01.364.48.749.57 1.003.57.254 0 .501-.09.748-.275l1.436-1.14c.254-.152.44-.433.501-.756.062-.316 0-.625-.185-.859-1.154-1.586-3.352-2.61-5.59-2.61-3.675 0-6.663 2.562-6.663 5.701 0 3.523 2.816 4.76 5.31 5.859 1.984.872 3.694 1.62 3.694 3.33 0 1.388-1.209 2.562-2.65 2.562-1.36 0-2.638-1.037-3.105-2.527-.172-.515-.563-.838-1.03-.838-.117 0-.24.028-.35.069l-2.144.735c-.295.089-.528.288-.666.556a1.167 1.167 0 0 0-.062.9c.976 3.05 3.99 5.178 7.356 5.178 3.97 0 7.205-2.98 7.205-6.627v-.021Zm.096 10.412c0 1.69-1.38 3.063-3.077 3.063a3.062 3.062 0 0 1-3.063-3.063c0-1.69 1.373-3.077 3.063-3.077 1.69 0 3.077 1.38 3.077 3.077Zm-4.437-1.209a.516.516 0 0 1-.11-.103 1.928 1.928 0 0 0-.508 1.312c0 .556.24 1.071.618 1.429V91.4Zm1.8 3.132a.584.584 0 0 1-.158-.185l-.289-.536v.336c0 .165-.09.316-.206.413.076 0 .144.02.213.02.151 0 .295-.02.44-.048Zm1.545-1.93c0-.611-.268-1.147-.7-1.51.199.253.315.57.315.926 0 .399-.192.797-.487 1.079l.419.755c.281-.343.453-.77.453-1.243v-.007ZM63.947 67.7h-2.22c-.645 0-1.18.522-1.18 1.154 0 1.958 0 3.922.013 5.886.014 1.958.02 3.922.02 5.886 0 2.273-1.75 4.128-3.914 4.128-2.163 0-3.853-1.855-3.853-4.128V68.853c0-.632-.522-1.154-1.174-1.154H47.86c-.433 0-.783.254-.886.632-.09.316.014.756.529 1.044.508.31.762.817.762 1.552v9.609c0 4.56 3.77 8.283 8.393 8.283 4.622 0 8.455-3.716 8.455-8.283V68.853c0-.632-.53-1.154-1.182-1.154h.014Z"/>
    <path fill="#212260" fill-rule="nonzero" d="M139.042 89.952a2.663 2.663 0 0 1 2.665 2.665 2.651 2.651 0 0 1-2.665 2.65 2.648 2.648 0 0 1-2.651-2.65 2.664 2.664 0 0 1 2.651-2.665m0 5.055a2.404 2.404 0 0 0 2.404-2.39 2.41 2.41 0 0 0-2.404-2.397 2.389 2.389 0 0 0-2.39 2.397 2.387 2.387 0 0 0 2.39 2.39m1.223-.852c.048.069.006.138-.062.138h-.35c-.055 0-.124-.048-.152-.11l-.57-1.044c-.027-.035-.04-.055-.096-.055h-.35c-.034 0-.062.027-.062.055v1.03a.13.13 0 0 1-.13.13h-.261a.126.126 0 0 1-.13-.13v-2.672c0-.171-.015-.322-.152-.391-.103-.055-.09-.144 0-.144h1.202c.625 0 1.078.48 1.078 1.078 0 .357-.233.742-.556.92-.02.014-.048.055-.02.096l.61 1.106v-.007Zm-1.079-1.559c.296 0 .536-.275.536-.584 0-.336-.24-.576-.536-.576h-.515s-.048.034-.048.048v1.071s.014.048.048.048h.515v-.007ZM25.292 82.006c0 3.523-2.925 6.394-6.565 6.394-2.755 0-5.31-1.731-6.168-4.293a.72.72 0 0 1 .453-.934l2.074-.625c.426-.165.77.096.941.481.454 1.312 1.56 2.163 2.7 2.163 1.593 0 2.87-1.449 2.87-3.186V70.948c0-.968-.37-1.566-.94-1.91-.598-.336-.371-.906.144-.906h3.722c.426 0 .77.343.77.735v13.139Zm15.234.796c.453 0 .714.09.852.488l1.497 4.038c.123.364.604.708 1.023.708h2.418c.453 0 .68-.344.542-.708l-7.163-18.447c-.137-.399-.598-.735-1.05-.735h-4.891c-.508 0-.824.487-.282.906.509.399.715 1.504.344 2.445L27.62 87.335c-.144.364.082.708.563.708h2.48c.425 0 .851-.344.995-.708l1.45-4.038c.137-.399.363-.488.851-.488h6.566v-.007Zm-5.343-3.235c-.454 0-.625-.26-.454-.741l1.594-4.382.645-2.445a.3.3 0 0 1 .289-.254c.144 0 .254.11.274.254l.653 2.445 1.593 4.382c.172.48 0 .741-.487.741h-4.114.007Zm38.104-10.693c-.254-.399-.735-.735-1.188-.735h-3.922c-.515 0-.735.577-.144.906.57.337.94.941.94 1.91v16.367c0 .364.344.707.715.707h2.218c.426 0 .77-.343.77-.707v-10.77l-.344-2.678c-.027-.227.316-.337.426-.083l1.078 2.473 6.82 11.05c.234.365.715.708 1.14.708h2.528c.378 0 .714-.343.714-.707V68.867c0-.398-.336-.735-.714-.735H82.03c-.426 0-.77.337-.742.735l.034 10.776.337 2.672c.02.226-.323.336-.426.082l-1.078-2.472-6.848-11.058-.02.007Zm30.178 5.687c0-3.558-3.063-6.422-6.792-6.422H88.78c-.515 0-.742.577-.15.906.562.337.94.941.94 1.91v16.367c0 .364.343.707.714.707h2.24c.425 0 .769-.343.769-.707v-5.68a.692.692 0 0 1 .707-.66h2.672c3.722 0 6.792-2.898 6.792-6.421m-9.464 3.186c-.419 0-.707-.336-.707-.762V72.15c0-.426.288-.77.707-.77h2.672c1.71 0 3.07 1.45 3.07 3.187 0 1.738-1.36 3.187-3.07 3.187H94v-.007Zm12.081 9.575c0 .364.343.707.707.707h2.212c.433 0 .776-.343.776-.707V68.874c0-.399-.336-.735-.776-.735h-3.716c-.515 0-.741.577-.15.906.57.337.94.941.94 1.91v16.367h.007Zm8.27 0c0 .364.343.707.707.707h10.879c.426 0 .762-.343.762-.707v-1.766a.762.762 0 0 0-.762-.769h-7.164c-.426 0-.707-.281-.707-.707V68.874c0-.399-.344-.735-.77-.735h-3.77c-.515 0-.742.577-.151.906.563.337.968.941.968 1.91v16.367h.007Zm26.03-17.136c-1.045-1.45-3.07-2.445-5.262-2.445-3.44 0-6.25 2.39-6.25 5.288 0 6.003 9.011 4.89 9.011 9.183 0 1.614-1.394 2.98-3.07 2.98s-2.987-1.195-3.496-2.809c-.144-.432-.48-.659-.851-.515l-2.164.742c-.364.11-.59.508-.453.934.88 2.789 3.64 4.89 6.964 4.89 3.723 0 6.786-2.816 6.786-6.222 0-3.407-2.52-5.028-5.391-6.25-1.937-.831-3.64-1.566-3.64-2.933 0-1.106 1.167-2.047 2.554-2.047 1.024 0 1.937.57 2.418 1.168.282.37.68.597 1.167.227l1.484-1.168c.275-.179.446-.68.185-1.023m-75.68-1.312a.75.75 0 0 0-.762-.735h-2.218c-.426 0-.77.336-.77.735 0 3.921.028 7.843.028 11.772 0 2.493-1.93 4.54-4.313 4.54s-4.272-2.047-4.265-4.54V68.874c0-.399-.337-.735-.77-.735h-3.777c-.515 0-.741.577-.144.906.57.337.969.941.969 1.91v9.608c0 4.32 3.605 7.871 7.987 7.871s8.036-3.55 8.036-7.87v-11.69Z"/>
    <path fill="url(#o)" fill-rule="nonzero" stroke="url(#n)" stroke-width=".73" d="M146.332 40.103c-.735 0-1.532.055-2.39.158-.35.041-.728.124-1.092.193-.028 0-.055 0-.09.013-10.24 1.237-23.688 12.754-44.89 17.541l-.638.124c-.165.028-.31.062-.44.082-.817-3.282-5.103-3.145-5.103-3.145H62.445c-2.301 0-3.654-.137-5.144 1.49-.57.618-.92 1.34-1.134 1.992-3.001-.37-6.47-1.264-7.98-1.779-10.083-3.413-17.088-6.861-22.713-9.636-1.216-.597-2.377-1.174-3.51-1.717-5.728-2.747-8.132-3.523-11.078-4.148-.955-.2-2.843-.536-4.808-.536-3.667 0-5.769 1.188-6.078 3.496l.893 16.016C1.73 75.33 2.913 96.6 3.468 106.511 3.654 108.86 5.687 110 9.67 110c6.312 0 17.116-2.919 28.551-6.01 6.01-1.62 12.225-3.303 18.317-4.711l.234-.055c1.415 2.5 4.533 2.143 4.533 2.143H92.67c1.759-.213 2.803-1.12 3.414-2.074 6.037 1.4 12.232 3.07 18.228 4.69 11.435 3.091 22.246 6.01 28.564 6.01 3.984 0 6.01-1.14 6.195-3.489.543-9.69 1.724-29.931 2.583-44.711.48-8.18.858-14.677.975-16.8v-.989c0-.158-.069-3.908-6.312-3.908l.014.007ZM.604 44.26c.261-1.944 2.109-2.933 5.488-2.933 1.902 0 3.75.33 4.684.529 2.892.61 5.268 1.38 10.94 4.1a496.25 496.25 0 0 1 3.504 1.71C30.858 50.447 37.878 53.901 48 57.33c1.518.515 4.973 1.407 8.002 1.785a7.613 7.613 0 0 0-.131.708c-1.669-.165-9.107-.914-13.894-1.573-5.42-.742-13.668-2.232-19.43-3.585-5.755-1.353-10.124-2.466-13.874-4.046-6.552-2.754-7.843-5.46-7.98-5.879-.028-.055-.055-.082-.083-.123l-.02-.357h.013Zm150.474 17.506c-.859 14.78-2.04 35.02-2.583 44.705a2.576 2.576 0 0 1-.638 1.525 3.536 3.536 0 0 1-2.033.927c-2.46.48-5.81.13-9.375-.55-3.695-.611-8.002-1.641-13.14-3.008-5.329-1.435-11.771-3.146-15.46-4.176-3.268-.906-7.946-2.177-10.604-2.843a14.63 14.63 0 0 1-1.82-.22c-.556 1.003-1.572 1.944-3.495 2.445-16.072.09-20.138 0-30.536 0-1.525 0-3.42-.879-4.327-2.678a9.48 9.48 0 0 0-.762.054c.013.07.027.131.048.193-2.39.563-7.988 2.033-11.628 3.05-3.695 1.03-10.13 2.733-15.46 4.175-5.13 1.367-9.444 2.397-13.139 3.008-3.557.687-6.909 1.03-9.375.55-.913-.096-1.586-.522-2.053-.948a2.495 2.495 0 0 1-.618-1.497c-.557-9.904-1.738-31.182-2.576-46.257L.707 45.99c.11.288.22.556.33.72.501.777 3.008 3.016 7.321 4.568 7.576 2.74 15.934 4.67 21.724 5.755 7.59 1.422 11.243 1.964 17.74 2.775 4.121.522 7.02.755 8.016.83v.11c.295.028.59.049.886.063v-.33s.137-3.66 4.107-4.622h.13c7.844 0 31.147.089 31.147.089s3.153.783 3.606 3.139c.11.57.185 1.085.247 1.58.02 0 .034-.007.055-.007h.914v-.11c.92-.042 3.695-.206 7.843-.728 6.497-.81 10.144-1.353 17.733-2.775 5.797-1.085 14.217-2.843 21.724-5.756 5.028-1.943 6.635-3.248 7.452-4.533.124-.185.227-.398.316-.638-.158 2.809-.501 8.612-.913 15.666l-.007-.02Zm.975-16.778c0 .04 0 .089-.007.13-1.435 2.603-5.11 4.176-8.764 5.618-3.79 1.49-7.52 2.569-13.269 3.929-5.755 1.353-14.01 2.843-19.43 3.585-4.938.68-12.383 1.298-13.674 1.4v-.734a85.791 85.791 0 0 0 8.242-2.143c.57-.172 1.126-.364 1.69-.55.253-.082.507-.171.755-.26a110.25 110.25 0 0 0 2.987-1.079c.495-.185.982-.377 1.463-.57.447-.178.886-.35 1.326-.535 3.461-1.422 6.676-2.926 9.656-4.382 1.14-.55 2.26-1.1 3.366-1.642 3.956-1.936 7.596-3.702 10.865-4.993 1.923-.7 3.743-1.202 5.467-1.408 5.77-.741 8.056.378 8.97 1.484.343.604.357 1.12.357 1.167v.983Z" transform="translate(1)"/>
  </g>
</svg>