<?xml version="1.0" encoding="UTF-8"?>
<svg width="1600px" height="44px" viewBox="0 0 1600 44" version="1.1" xmlns="http://www.w3.org/2000/svg" xmlns:xlink="http://www.w3.org/1999/xlink">
    <title>87DF9AB9-9A23-4A1A-8D7E-A39A29F2D0FA</title>
    <g id="Design" stroke="none" stroke-width="1" fill="none" fill-rule="evenodd">
        <g id="Homepage---V3" transform="translate(0.000000, -843.000000)" fill="#FFFFFF" fill-rule="nonzero">
            <g id="Hero" transform="translate(0.000000, 160.000000)">
                <path d="M1109.45285,703.357143 C1107.53349,703.416667 1107.91736,702.904762 1105.18876,702.952381 L1105.18876,702.130952 L1103.08459,701.995627 L1101.78229,701.900133 C1097.06366,701.531845 1093.02295,700.945967 1091.53536,699.547619 C1091.12382,699.539683 1090.67655,699.544974 1090.24003,699.547619 L1089.72435,699.548508 C1089.0516,699.545291 1088.45401,699.519048 1088.12201,699.404762 C1087.27127,699.630952 1086.86664,700 1085.5594,700.083333 L1085.75052,699.989675 L1085.81786,699.94581 C1085.8968,699.882381 1085.86443,699.830952 1085.5594,699.809524 L1085.34153,699.607143 L1085.12366,699.809524 L1084.85195,699.749839 C1084.22232,699.591329 1084.32927,699.437042 1084.62402,699.263456 L1085.06628,699.026145 C1085.30628,698.894453 1085.52388,698.749278 1085.54903,698.583333 C1085.6424,698.047619 1084.53229,697.440476 1084.69828,696.952381 C1085.07178,695.880952 1087.85226,695.72619 1088.96238,694.916667 C1089.84425,694.952381 1089.367,695.428571 1090.23849,695.464286 C1091.77398,695.095238 1093.57922,694.809524 1094.50259,694.238095 C1093.1746,693.77381 1092.11635,694.547619 1090.23849,694.369048 C1090.43562,693.857143 1092.02298,693.797619 1091.09961,693.285714 C1088.25688,692.75 1082.89305,694.095238 1078.72233,693.559524 C1078.28207,693.609213 1077.9962,693.707872 1077.71977,693.809411 L1077.51196,693.885386 C1077.05571,694.048047 1076.52871,694.187888 1075.30898,694.107143 L1075.60596,694.674052 L1075.70789,694.854427 C1076.21956,695.71963 1077.04862,696.475998 1080.00882,696.559524 C1080.04825,697.089582 1079.35967,697.387985 1078.54766,697.647222 L1077.86231,697.856211 C1077.38961,697.999155 1076.93066,698.14652 1076.59547,698.333333 C1075.49573,698.321429 1075.98335,697.797619 1074.88361,697.785714 C1073.53487,697.761905 1073.46224,698.142857 1071.89563,698.059524 C1069.85177,697.738095 1068.12953,697.321429 1066.54217,696.857143 L1066.54217,696.834524 L1065.62591,696.789131 C1060.00855,696.466439 1055.66768,695.633117 1053.23114,694.190476 C1050.76191,694.297619 1049.57917,694 1047.25518,694.059524 C1046.10357,692.97619 1041.72535,692.916667 1038.71662,692.428571 L1038.9345,692.22619 L1038.29125,692.154762 C1039.22499,691.869048 1038.08375,691.761905 1038.29125,691.333333 C1035.86352,691.464286 1034.8364,690.595238 1032.74067,691.059524 L1032.53317,690.857143 L1032.31529,690.654762 C1032.84442,690.214286 1030.93543,690.547619 1031.46455,690.107143 C1030.60966,690.088095 1030.27268,690.229048 1029.98085,690.38981 L1029.76306,690.511905 C1030.58268,690.571429 1030.84205,690.809524 1031.9003,690.785714 L1031.6928,690.988095 L1032.32567,691.059524 L1032.07499,691.371693 L1031.84535,691.64418 C1031.54179,691.982804 1031.22593,692.22619 1030.62418,692.416667 C1029.69044,692.297619 1029.66969,691.904762 1028.48695,691.869048 C1027.39758,691.892857 1027.6362,692.333333 1027.6362,692.690476 C1030.05356,692.690476 1028.58032,693.309524 1029.33769,693.642857 C1031.25705,692.952381 1031.2363,692.178571 1034.03753,691.607143 C1034.59778,692.02381 1035.95689,692.178571 1037.87625,692.154762 L1037.65838,692.357143 L1037.87625,692.559524 C1033.65366,692.964286 1038.976,694.845238 1037.87625,695.821429 C1036.99438,695.285714 1034.80528,695.166667 1032.75104,695 C1033.04154,695.678571 1034.3799,696.02381 1034.88828,696.630952 C1034.12053,696.607143 1033.98566,696.797619 1033.17641,696.761905 L1032.75104,696.690476 C1032.73029,696.785714 1032.63692,696.869048 1032.54354,696.964286 L1033.18679,697.035714 C1034.81565,697.511905 1036.85951,697.857143 1037.87625,698.535714 C1039.14683,698.697061 1040.51053,698.849711 1041.92611,699.000035 L1046.99743,699.523722 L1050.58108,699.910088 L1052.4979,700.136796 C1059.31076,700.978527 1065.0378,702.117999 1065.18305,704.25 C1063.70542,705.092491 1060.75017,705.301493 1057.79678,705.330267 L1056.64449,705.333333 C1052.62939,705.309524 1049.39242,705.964286 1044.70295,705.464286 C1043.94558,705.380952 1043.10521,705 1042.14035,704.916667 C1037.76213,704.547619 1032.79254,704.547619 1028.91232,704.095238 C1026.92033,703.869048 1025.68572,703.321429 1023.78711,703.416667 C1022.94674,703.321429 1022.82224,703 1022.08562,702.869048 C1020.70575,702.904762 1020.28038,702.630952 1018.67227,702.738095 C1018.10165,702.440476 1018.87977,702.333333 1018.2469,701.916667 C1015.64279,701.833333 1013.43293,700.940476 1010.13371,700.690476 C1009.90546,700.452381 1009.91583,700.130952 1009.28296,700.011905 C1008.97172,699.547619 1011.01558,699.845238 1010.56945,699.333333 C1009.89508,699.178571 1009.04434,699.702381 1008.00685,699.607143 C1007.6541,700.666667 1009.28296,701.535714 1007.1561,702.059524 C1006.01486,701.702381 1006.28461,700.892857 1004.5935,700.702381 C1002.68451,700.72619 1001.50177,700.988095 1000.3294,701.25 C1000.63028,701.75 999.603159,701.833333 999.904032,702.333333 C997.227302,703.107143 995.131567,704.071429 993.928076,705.321429 C993.800612,705.420068 993.530018,705.509961 993.230264,705.596661 L992.502999,705.804647 L992.330403,705.862405 C991.982947,705.988256 991.826042,706.1196 992.216213,706.27381 C993.232956,706.452381 994.633571,706.5 995.629563,706.678571 C996.106118,706.859127 995.856002,706.963677 995.520815,707.066812 L995.277453,707.140659 C994.913627,707.254905 994.62616,707.387755 995.204191,707.630952 C995.43244,707.845238 995.650313,707.642857 995.629563,707.5 C997.528174,707.72619 997.4763,708.416667 998.617541,708.857143 C1000.31903,709.511905 1002.53926,709.964286 1004.5935,710.619048 L1005.66045,710.959808 L1007.04994,711.386571 C1008.96779,711.964023 1011.11547,712.565306 1013.12168,713.071429 C1012.02194,713.309524 1010.39308,713.380952 1009.28296,713.619048 C1006.21199,713.047619 1004.386,711.392857 999.893657,710.892857 C999.489035,710.071429 998.12992,709.559524 996.054935,709.261905 C996.00575,708.684989 995.118872,708.372326 994.134272,708.089023 L993.342853,707.865079 C992.719974,707.685185 992.136672,707.492063 991.780467,707.22619 C988.418991,707.309524 986.281757,708.619048 984.103023,707.904762 C985.555512,707.809524 984.933017,707.107143 986.240257,706.547619 C986.136508,706.059524 984.082273,705.702381 984.964142,705.321429 L985.607387,705.392857 L984.320896,704.714286 L984.53877,704.916667 C983.988899,705.107143 982.51566,705 981.976164,705.190476 L981.675291,704.964286 L981.115045,704.785714 C981.04242,704.452381 981.77904,704.369048 981.965789,704.107143 C982.069538,703.571429 980.378425,703.619048 979.403183,703.428571 C979.5077,702.934744 978.697745,702.737736 977.778624,702.574946 L977.43041,702.514991 C976.905131,702.425926 976.377163,702.337302 975.989833,702.202381 C969.422506,702.190476 964.484042,700.154762 959.348455,700.97619 L958.70521,701.047619 L958.487336,701.25 C958.051589,701.229167 957.814425,701.144531 957.622935,701.045939 L957.367661,700.903035 C957.218843,700.820821 957.052632,700.744898 956.785849,700.702381 C953.133875,700.845238 951.805885,701.547619 947.821914,701.25 L947.510479,701.306329 L947.214287,701.367626 C946.402008,701.549968 945.841292,701.812925 946.110052,702.333333 L945.678184,702.446739 L945.089775,702.578682 L943.867312,702.826179 C942.732799,703.060987 941.705897,703.328028 941.420586,703.833333 C943.070199,704.666667 946.3798,705.321429 948.672658,706.142857 C949.046155,706.27381 950.592019,707.261905 950.809892,707.642857 C950.965516,707.916667 950.094023,708.369048 950.384521,708.72619 C950.797813,709.221981 951.796939,709.600676 952.902837,709.951274 L954.643175,710.486621 L955.084361,710.630952 L955.29186,710.77381 C955.986979,710.785714 956.650975,710.833333 957.003722,710.97619 L957.221595,710.77381 C958.476961,710.5 961.008443,711.011905 961.911061,711.595238 C959.88017,712.415179 960.344929,713.374173 961.005904,714.312074 L961.434276,714.909168 C961.716658,715.315926 961.941494,715.711905 961.911061,716.083333 C959.31733,717.595238 951.733261,720.107143 945.695055,718.392857 C945.466807,717.559524 945.145184,716.607143 944.418939,715.809524 C943.786069,715.107143 943.00795,714.261905 942.29208,713.77381 C941.109339,712.964286 938.235485,712.428571 938.027986,711.464286 L937.744685,711.388067 L937.339142,711.266343 C936.9722,711.159834 936.561132,711.06685 935.890752,711.059524 C937.166868,709.892857 935.019258,708.964286 932.902774,709.02381 C930.651416,709.083333 929.966671,710.642857 927.35219,711.333333 C926.065699,711.678571 925.121581,711.511905 924.364212,711.880952 C924.499086,712.190476 924.291587,712.404762 923.93884,712.559524 C923.565343,713 925.349829,712.75 925.214955,713.107143 C923.907715,713.916667 923.139971,714.892857 920.950862,715.416667 C923.046596,716.869048 919.487998,718.607143 919.238999,720.178571 C917.278139,720.114286 917.427538,719.424286 917.822698,718.805429 L917.913799,718.669359 L918.235047,718.230012 C918.349849,718.068204 918.423095,717.939594 918.388256,717.869048 C917.371513,717.22619 916.697143,717.190476 916.261396,716.511905 C914.43541,716.297619 913.180044,715.892857 911.136184,716.107143 C912.146823,715.848739 912.764903,715.470217 913.333721,715.075797 L913.709401,714.811639 C914.085319,714.547413 914.473248,714.286415 914.974906,714.059524 C912.692422,712.702381 916.354771,710.690476 914.974906,709.297619 C917.09139,709.5 915.628526,708.52381 915.825649,708.214286 L916.117641,707.743238 C916.279241,707.488095 916.464745,707.216667 916.676393,706.988095 C916.697143,706.964286 917.506387,707.011905 917.527137,706.988095 C917.72426,706.785714 917.413013,706.52381 917.527137,706.309524 C917.693136,706 918.875877,705.678571 918.803253,705.22619 C918.792878,705.142857 917.952509,704.821429 917.952509,704.821429 C918.097758,704.464286 918.406412,704.142857 918.737112,703.833333 L919.135489,703.466095 C919.330921,703.28381 919.513935,703.102381 919.653996,702.916667 C919.20082,702.501905 918.262312,702.518495 917.184209,702.629983 L915.636234,702.811917 C915.113166,702.870724 914.594353,702.916667 914.113787,702.916667 C911.800179,702.916667 910.098691,702.547619 908.137831,702.369048 L908.380141,702.233769 L908.586357,702.128382 C909.275291,701.798367 909.675575,701.864648 911.551181,701.964286 C910.337315,701.309524 906.21847,701.952381 906.000597,702.511905 C902.659871,702.809524 900.854634,703.595238 899.173897,704.416667 C899.422895,704.71131 900.005998,704.900484 900.667703,705.064546 L901.619478,705.285994 C902.434787,705.475744 903.191586,705.683333 903.448365,706.047619 L902.80512,705.97619 L902.597622,706.178571 C899.620018,706.309524 898.841899,705.738095 896.621665,705.630952 C894.67118,705.642857 894.982427,706.380952 893.633687,706.583333 C891.703952,706.869048 890.977707,706.083333 890.645709,706.309524 C889.691216,706.047619 891.382329,705.464286 889.794966,705.22619 C889.624598,705.241228 889.516474,705.27602 889.428437,705.317131 L889.266657,705.403795 C889.083349,705.503627 888.857946,705.589599 888.083103,705.5 L887.439858,705.428571 L886.796613,705.5 C887.014486,705.071429 887.543607,704.75 888.072728,704.416667 C885.04325,703.952381 883.404013,705.107143 882.096772,705.642857 C882.605143,705.988095 882.708893,706.440476 882.947516,706.869048 C882.470269,706.931548 882.050085,707.012649 881.640275,707.097284 L881.027507,707.225005 L880.63687,707.302501 C879.709871,707.478446 878.651001,707.612723 876.97156,707.547619 C876.151941,707.738095 877.407307,708.27381 876.546188,708.77381 C877.033809,709.071429 879.357792,708.77381 879.534166,709.178571 C878.704172,709.809524 875.923692,709.97619 873.55821,709.72619 C872.10572,709.714286 871.970846,710.119048 871.420976,710.404762 C866.701328,710.531385 864.863938,711.582448 863.402851,712.749428 L862.926322,713.141605 L862.457041,713.535714 L861.813796,713.464286 L861.170551,713.535714 L861.170551,713.404762 C857.798701,713.535714 856.335836,714.892857 855.619967,715.440476 C854.862597,716.011905 853.389358,716.154762 853.05736,716.666667 L852.539715,716.684223 L852.194846,716.705321 C847.797723,717.021897 844.581244,719.071056 851.345498,719.25 L851.388759,719.757347 L851.50041,720.869944 C851.659639,722.550069 851.63206,723.840722 850.069382,726.047619 C849.094139,726.119048 847.890648,726.321429 847.081404,726.047619 L846.626068,726.185188 L846.005487,726.357752 C844.391058,726.779146 843.014928,726.901738 839.829333,727 C838.87484,725.761905 838.75034,723.083333 838.553217,721.559524 C838.508753,721.215986 838.601492,720.868562 838.7148,720.525302 L838.853177,720.115905 L838.92177,719.892503 C839.098145,719.263092 839.091402,718.66604 838.127845,718.154762 C835.834987,718.047619 837.4431,718.690476 837.277101,718.833333 C836.567878,719.425781 835.182233,719.793925 833.680134,720.130526 L832.333662,720.42537 C831.5219,720.603919 830.72404,720.789683 830.02503,721.011905 C829.909776,722.299587 827.57787,722.879157 824.988904,723.378778 L823.051975,723.744019 L822.162154,723.921199 C821.28756,724.103359 820.467779,724.303385 819.78498,724.547619 L817.222374,724.547619 C817.667013,724.262755 817.758323,723.971817 817.782238,723.691075 L817.793284,723.441599 C817.807101,723.031857 817.862284,722.656037 818.923861,722.369048 C818.882361,722.02381 817.336498,722.154762 816.786627,721.964286 C815.251138,719.214286 820.957346,717.119048 827.026677,715.97619 L827.562714,715.689153 C827.922378,715.498677 828.295876,715.313492 828.738539,715.154762 C835.025743,714.5 835.326616,712.666667 837.277101,710.797619 C836.218859,710.166667 828.686664,710.333333 827.887795,711.071429 C828.199043,711.428571 829.28841,711.535714 829.599658,711.892857 C829.108578,712.115079 828.675137,712.355489 828.258122,712.60097 L827.156078,713.258391 L826.727444,713.49984 C825.071181,714.40001 822.930503,715.143739 818.083492,715.02381 C816.070757,714.666667 817.575121,713.595238 815.520886,713.52381 C816.209222,713.269689 817.177267,713.249348 818.237751,713.286768 L819.929702,713.366746 L820.646098,713.392857 C820.81639,713.322455 821.000736,713.251879 821.192607,713.18067 L822.127549,712.838485 C823.266957,712.413694 824.317033,711.944581 824.059448,711.345238 C823.76895,710.666667 821.486467,710.488095 820.220727,709.988095 C817.180874,710.285714 815.074764,710.880952 812.543283,711.345238 L812.335784,711.142857 L811.692539,711.214286 C810.530548,710.678571 807.013448,710.178571 804.865839,710.404762 C804.118845,710.142857 804.419718,709.369048 803.164352,708.77381 C802.365483,708.404762 801.224241,708.22619 800.176374,707.964286 L798.464511,707.964286 L798.682385,707.714286 L798.039139,707.559524 L798.871488,707.377761 C802.511422,706.55821 805.300138,705.566168 804.865839,703.75 C804.513092,703.404762 803.37185,703.321429 802.728605,703.071429 L801.577925,703.197592 L800.764839,703.294737 C798.542154,703.575819 796.666135,703.965753 796.327277,704.845238 C792.716803,704.690476 789.656201,705.011905 787.788715,704.845238 C786.896471,704.27381 788.867707,703.964286 789.500577,703.488095 C788.193337,702.845238 788.950706,701.964286 790.351321,701.452381 C788.203712,701.678571 787.072845,702.22619 784.375365,702.27381 C783.91408,702.771978 784.546868,703.037162 785.247742,703.258673 L785.970181,703.485216 L786.145134,703.549763 C786.61065,703.735622 786.795578,703.951192 786.087227,704.309524 C784.188616,704.309524 783.752869,703.72619 781.812759,703.488095 C780.225395,703.297619 777.683539,703.452381 776.262174,703.214286 C774.000441,702.845238 772.994073,701.97619 771.572709,701.452381 L769.435474,701.452381 C767.526488,701.821429 770.089095,702.797619 767.308615,702.809524 L766.66537,702.738095 L766.457871,702.940476 C764.839383,702.607143 760.876162,702.202381 758.770053,702.392857 C756.570569,702.595238 756.746943,703.25 755.356703,703.619048 C751.953728,703.619048 751.061484,704.428571 750.241865,705.25 L749.660654,705.325507 C749.561479,705.337384 749.461315,705.348958 749.360402,705.360305 L747.386162,705.571081 L746.877855,705.633182 C745.631191,705.79607 744.588273,706.023384 744.265909,706.47619 C744.328159,707.047619 745.925897,707.130952 745.977772,707.702381 L745.334526,707.77381 L745.116653,707.97619 C743.767913,707.72619 743.083168,707.261905 741.277931,707.154762 C736.783818,709.043264 734.1703,711.527329 731.67271,714.048207 L730.738101,714.994171 L729.857362,715.874407 C728.669872,717.043892 727.414756,718.191986 725.912669,719.261905 L725.017504,719.232084 C720.761989,719.121575 717.553827,719.49232 716.097991,720.071429 C715.143498,719.607143 712.85064,719.559524 712.684641,718.845238 C712.38031,718.626984 712.657893,718.591291 713.031917,718.585711 L713.556135,718.582451 C713.818966,718.575397 714.01609,718.547619 713.960757,718.440476 C712.560142,718.47619 712.11402,717.5 713.110013,717.214286 C712.929762,717.170996 712.739878,717.130742 712.544841,717.092102 L711.037675,716.806667 L710.72441,716.738816 C709.653233,716.493242 708.875158,716.153763 709.271291,715.440476 C708.638421,714.738095 706.127689,714.630952 706.283313,713.678571 C705.972066,713.166667 707.912176,713.380952 707.995176,713 C707.953676,712.488095 706.324813,712.988095 706.283313,712.72619 C707.123682,711.392857 707.746177,710.833333 709.696663,709.869048 L709.785567,709.953689 C709.946242,710.098057 710.212919,710.212857 711.833897,710.142857 C713.110013,710.047619 711.429275,709.845238 711.833897,709.595238 L712.327905,709.541351 L712.807443,709.478636 C717.330659,708.835088 718.572109,707.129214 714.396504,706.059524 C713.867383,705.916667 712.394143,705.880952 711.885772,705.666667 C711.968771,705.666667 711.201027,705.059524 711.014278,705.071429 C711.201027,704.952381 712.15552,704.642857 712.259269,704.702381 C710.86903,703.928571 708.171549,704.130952 706.283313,703.75 C705.773999,703.866342 705.361681,704.01343 704.979009,704.169881 L704.194375,704.505495 C703.184481,704.934766 702.046471,705.323016 699.456613,705.25 C699.881985,704.130952 696.966632,703.095238 694.767148,704.02381 C692.754413,703.988095 692.246041,703.47619 690.503054,703.345238 C687.266078,703.285714 687.660325,704.880952 688.376195,705.654762 L686.953081,705.961725 L686.262366,706.12219 C685.245458,706.369048 684.327899,706.647619 683.686729,707.011905 C679.806508,705.952381 675.438665,707.785714 675.158542,709.190476 C674.214424,708.928571 674.318173,708.511905 672.595936,708.238095 C669.244835,708.619048 666.339857,709.154762 664.49312,710.011905 C664.275247,711.011905 664.565745,711.642857 664.067748,712.321429 C662.916132,712.654762 661.702266,712.166667 659.803655,712.321429 C659.565031,712 659.73103,711.547619 659.378283,710.964286 L658.527539,710.964286 L658.32004,710.761905 L657.676795,710.833333 L657.676795,710.559524 C657.147674,710.190476 655.373562,710.214286 653.838073,710.154762 C651.57634,709.857143 652.727957,708.738095 651.700839,707.845238 C651.055592,707.280532 649.805112,706.947319 648.382319,706.650382 L646.771751,706.329288 C645.979691,706.171752 645.183727,706.004286 644.448767,705.797619 L645.092013,705.642857 L644.884514,705.392857 L647.011374,705.392857 C647.343371,704.916667 646.77275,704.738095 645.309886,704.845238 C645.206137,704.27381 646.544502,704.154762 647.011374,703.761905 C647.270747,702.797619 645.610759,702.52381 645.309886,701.452381 C645.673008,700.892857 647.405621,700.761905 647.872492,700.22619 C647.011374,699.738095 645.351386,699.5 644.03377,699.142857 C643.373322,699.108669 642.891133,699.129026 642.457515,699.164768 L641.6924,699.238117 C641.488722,699.257396 641.278031,699.274725 641.045792,699.285714 L639.728207,699.114913 L638.750386,698.998974 C636.576009,698.759272 635.087654,698.744306 632.932602,699.142857 C630.172872,698.47619 625.74278,698.821429 622.692552,699.142857 C622.228411,699.040518 621.757324,698.940377 621.282618,698.841374 L618.417566,698.252525 L617.594226,698.079805 C613.908762,697.296251 610.526702,696.41496 609.039152,694.928571 C606.767044,695.011905 605.9993,694.619048 604.775059,694.380952 C603.146196,694.5 602.191703,694.833333 601.361709,695.202381 L601.656502,695.423539 C601.898029,695.607143 602.116114,695.794218 602.212453,696.02381 C601.375542,696.031812 600.951197,696.168924 600.5959,696.330274 L600.296602,696.473834 C600.228352,696.506878 600.158909,696.539683 600.085593,696.571429 C598.135107,696.095238 594.472759,696.309524 594.535009,697.25 C595.686625,698.059524 597.834235,698.547619 598.373731,699.559524 L597.76768,699.492845 L598.112296,699.650403 C598.253992,699.719055 598.323399,699.763675 598.373731,699.821429 L597.75746,699.490476 L597.730485,699.488095 L597.512612,699.690476 C596.288371,699.535714 595.78,699.333333 595.375378,698.869048 C595.147129,698.595238 593.974763,698.642857 593.67389,698.464286 C593.383392,698.285714 594.337885,698.178571 594.099262,698.059524 C593.881389,697.952381 592.947646,697.988095 592.823146,697.916667 C592.377025,697.690476 592.729772,697.190476 591.536656,697.107143 C589.741794,697.559524 587.334812,698.690476 584.284584,697.916667 C583.130938,698.030538 583.382607,698.242268 583.756115,698.429765 L584.159196,698.623592 C584.244355,698.669081 584.297553,698.708333 584.284584,698.738095 C584.118585,699.119048 582.468972,699.297619 582.998094,699.821429 L582.169988,700.005569 L581.766176,700.101154 C580.239844,700.474747 578.994804,700.941297 579.159372,701.857143 C577.079671,701.964286 577.076584,702.50974 577.297638,702.945798 L577.349698,703.040676 L577.457884,703.214286 L576.700515,703.166667 L577.457884,703.357143 C577.167386,703.333333 576.908013,703.25 576.700515,703.166667 L576.181769,703.357143 C574.262408,703.416667 574.64628,702.904762 571.917675,702.952381 L571.917675,702.130952 L569.813503,701.995627 L568.511205,701.900133 C563.792575,701.531845 559.75187,700.945967 558.264275,699.547619 C557.852737,699.539683 557.405462,699.544974 556.968947,699.547619 L556.453269,699.548508 C555.780518,699.545291 555.182923,699.519048 554.850925,699.404762 C554.000182,699.630952 553.59556,700 552.288319,700.083333 L552.479439,699.989675 L552.546779,699.94581 C552.625712,699.882381 552.593342,699.830952 552.288319,699.809524 L552.070446,699.607143 L551.852572,699.809524 L551.580864,699.749839 C550.951238,699.591329 551.058183,699.437042 551.352937,699.263456 L551.795196,699.026145 C552.035196,698.894453 552.252793,698.749278 552.277944,698.583333 C552.371319,698.047619 551.261202,697.440476 551.4272,696.952381 C551.800698,695.880952 554.581177,695.72619 555.691294,694.916667 C556.573163,694.952381 556.095916,695.428571 556.96741,695.464286 C558.502898,695.095238 560.308135,694.809524 561.231503,694.238095 C559.903513,693.77381 558.845271,694.547619 556.96741,694.369048 C557.164533,693.857143 558.751897,693.797619 557.828528,693.285714 C554.985799,692.75 549.621964,694.095238 545.451244,693.559524 C545.010987,693.609213 544.725117,693.707872 544.448689,693.809411 L544.240874,693.885386 C543.784628,694.048047 543.257625,694.187888 542.037894,694.107143 L542.334877,694.674052 L542.436805,694.854427 C542.948474,695.71963 543.777535,696.475998 546.737735,696.559524 C546.777169,697.089582 546.088589,697.387985 545.276574,697.647222 L544.591231,697.856211 C544.118527,697.999155 543.659575,698.14652 543.324385,698.333333 C542.224643,698.321429 542.712264,697.797619 541.612523,697.785714 C540.263782,697.761905 540.191158,698.142857 538.624544,698.059524 C536.580684,697.738095 534.858447,697.321429 533.271084,696.857143 L533.271084,696.834524 L532.354829,696.789131 C526.737464,696.466439 522.396592,695.633117 519.960057,694.190476 C517.490825,694.297619 516.308083,694 513.9841,694.059524 C512.832484,692.97619 508.454266,692.916667 505.445538,692.428571 L505.663412,692.22619 L505.020166,692.154762 C505.953909,691.869048 504.812668,691.761905 505.020166,691.333333 C502.592434,691.464286 501.565317,690.595238 499.469582,691.059524 L499.262084,690.857143 L499.04421,690.654762 C499.573331,690.214286 497.664345,690.547619 498.193466,690.107143 C497.338573,690.088095 497.001595,690.229048 496.709769,690.38981 L496.491979,690.511905 C497.311598,690.571429 497.570971,690.809524 498.629213,690.785714 L498.421715,690.988095 L499.054585,691.059524 L498.803906,691.371693 L498.574265,691.64418 C498.270702,691.982804 497.954843,692.22619 497.353098,692.416667 C496.419354,692.297619 496.398605,691.904762 495.215863,691.869048 C494.126496,691.892857 494.36512,692.333333 494.36512,692.690476 C496.782477,692.690476 495.309238,693.309524 496.066607,693.642857 C497.985968,692.952381 497.965218,692.178571 500.766447,691.607143 C501.326693,692.02381 502.685808,692.178571 504.605169,692.154762 L504.387296,692.357143 L504.605169,692.559524 C500.382575,692.964286 505.704911,694.845238 504.605169,695.821429 C503.723301,695.285714 501.534192,695.166667 499.479957,695 C499.770455,695.678571 501.10882,696.02381 501.617191,696.630952 C500.849447,696.607143 500.714573,696.797619 499.905329,696.761905 L499.479957,696.690476 C499.459207,696.785714 499.365833,696.869048 499.272458,696.964286 L499.915704,697.035714 C501.544567,697.511905 503.588427,697.857143 504.605169,698.535714 C505.875749,698.697061 507.239443,698.849711 508.655022,699.000035 L513.726342,699.523722 L517.309994,699.910088 L519.226814,700.136796 C526.039673,700.978527 531.766716,702.117999 531.911969,704.25 C530.43434,705.092491 527.479083,705.301493 524.525699,705.330267 L523.373406,705.333333 C519.358311,705.309524 516.121335,705.964286 511.431869,705.464286 C510.6745,705.380952 509.834131,705 508.869263,704.916667 C504.491045,704.547619 499.521457,704.547619 495.641235,704.095238 C493.64925,703.869048 492.414634,703.321429 490.516023,703.416667 C489.675654,703.321429 489.551155,703 488.814535,702.869048 C487.43467,702.904762 487.009299,702.630952 485.401185,702.738095 C484.830565,702.440476 485.608684,702.333333 484.975813,701.916667 C482.371708,701.833333 480.161849,700.940476 476.862623,700.690476 C476.634375,700.452381 476.64475,700.130952 476.011879,700.011905 C475.700632,699.547619 477.744492,699.845238 477.29837,699.333333 C476.624,699.178571 475.773256,699.702381 474.735764,699.607143 C474.383016,700.666667 476.011879,701.535714 473.88502,702.059524 C472.743778,701.702381 473.013526,700.892857 471.322414,700.702381 C469.413428,700.72619 468.230686,700.988095 467.05832,701.25 C467.359193,701.75 466.332075,701.833333 466.632948,702.333333 C463.956218,703.107143 461.860483,704.071429 460.656992,705.321429 C460.529529,705.420068 460.258934,705.509961 459.95918,705.596661 L459.231915,705.804647 L459.059319,705.862405 C458.711863,705.988256 458.554958,706.1196 458.94513,706.27381 C459.961872,706.452381 461.362487,706.5 462.35848,706.678571 C462.835034,706.859127 462.584918,706.963677 462.249731,707.066812 L462.006369,707.140659 C461.642544,707.254905 461.355076,707.387755 461.933108,707.630952 C462.161356,707.845238 462.379229,707.642857 462.35848,707.5 C464.257091,707.72619 464.205216,708.416667 465.346458,708.857143 C467.047945,709.511905 469.268179,709.964286 471.322414,710.619048 L472.389367,710.959808 L473.778855,711.386571 C475.696702,711.964023 477.844387,712.565306 479.850601,713.071429 C478.750859,713.309524 477.121996,713.380952 476.011879,713.619048 C472.940902,713.047619 471.114915,711.392857 466.622573,710.892857 C466.217951,710.071429 464.858836,709.559524 462.783851,709.261905 C462.734667,708.684989 461.847788,708.372326 460.863189,708.089023 L460.071769,707.865079 C459.44889,707.685185 458.865589,707.492063 458.509383,707.22619 C455.147908,707.309524 453.010673,708.619048 450.831939,707.904762 C452.284429,707.809524 451.661933,707.107143 452.969174,706.547619 C452.865424,706.059524 450.811189,705.702381 451.693058,705.321429 L452.336303,705.392857 L451.049813,704.714286 L451.267686,704.916667 C450.717815,705.107143 449.244576,705 448.70508,705.190476 L448.404207,704.964286 L447.843961,704.785714 C447.771337,704.452381 448.507956,704.369048 448.694705,704.107143 C448.798454,703.571429 447.107342,703.619048 446.132099,703.428571 C446.236616,702.934744 445.426661,702.737736 444.507541,702.574946 L444.159326,702.514991 C443.634048,702.425926 443.106079,702.337302 442.718749,702.202381 C436.151422,702.190476 431.212958,700.154762 426.077371,700.97619 L425.434126,701.047619 L425.216252,701.25 C424.780506,701.229167 424.543341,701.144531 424.351851,701.045939 L424.096577,700.903035 C423.947759,700.820821 423.781549,700.744898 423.514765,700.702381 C419.862792,700.845238 418.534801,701.547619 414.550831,701.25 L414.239395,701.306329 L413.943204,701.367626 C413.130925,701.549968 412.570208,701.812925 412.838968,702.333333 L412.4071,702.446739 L411.818691,702.578682 L410.596228,702.826179 C409.461715,703.060987 408.434813,703.328028 408.149503,703.833333 C409.799116,704.666667 413.108716,705.321429 415.401574,706.142857 C415.775072,706.27381 417.320935,707.261905 417.538809,707.642857 C417.694433,707.916667 416.822939,708.369048 417.113437,708.72619 C417.526729,709.221981 418.525855,709.600676 419.631753,709.951274 L421.372091,710.486621 L421.813277,710.630952 L422.020776,710.77381 C422.715896,710.785714 423.379891,710.833333 423.732638,710.97619 L423.950512,710.77381 C425.205877,710.5 427.737359,711.011905 428.639977,711.595238 C426.609086,712.415179 427.073846,713.374173 427.734821,714.312074 L428.163192,714.909168 C428.445574,715.315926 428.67041,715.711905 428.639977,716.083333 C426.046246,717.595238 418.462177,720.107143 412.423971,718.392857 C412.195723,717.559524 411.8741,716.607143 411.147856,715.809524 C410.514985,715.107143 409.736866,714.261905 409.020996,713.77381 C407.838255,712.964286 404.964401,712.428571 404.756903,711.464286 L404.473602,711.388067 L404.068059,711.266343 C403.701116,711.159834 403.290048,711.06685 402.619668,711.059524 C403.895784,709.892857 401.748175,708.964286 399.63169,709.02381 C397.380332,709.083333 396.695587,710.642857 394.081106,711.333333 C392.794615,711.678571 391.850497,711.511905 391.093128,711.880952 C391.228002,712.190476 391.020503,712.404762 390.667756,712.559524 C390.294259,713 392.078746,712.75 391.943872,713.107143 C390.636631,713.916667 389.868887,714.892857 387.679778,715.416667 C389.775513,716.869048 386.216914,718.607143 385.967916,720.178571 C384.007055,720.114286 384.156454,719.424286 384.551614,718.805429 L384.642715,718.669359 L384.963963,718.230012 C385.078765,718.068204 385.152011,717.939594 385.117172,717.869048 C384.100429,717.22619 383.426059,717.190476 382.990312,716.511905 C381.164326,716.297619 379.90896,715.892857 377.8651,716.107143 C378.87574,715.848739 379.493819,715.470217 380.062637,715.075797 L380.438318,714.811639 C380.814235,714.547413 381.202164,714.286415 381.703822,714.059524 C379.421339,712.702381 383.083687,710.690476 381.703822,709.297619 C383.820306,709.5 382.357442,708.52381 382.554566,708.214286 L382.846557,707.743238 C383.008157,707.488095 383.193661,707.216667 383.405309,706.988095 C383.426059,706.964286 384.235303,707.011905 384.256053,706.988095 C384.453177,706.785714 384.141929,706.52381 384.256053,706.309524 C384.422052,706 385.604793,705.678571 385.532169,705.22619 C385.521794,705.142857 384.681425,704.821429 384.681425,704.821429 C384.826674,704.464286 385.135328,704.142857 385.466029,703.833333 L385.864405,703.466095 C386.059837,703.28381 386.242851,703.102381 386.382913,702.916667 C385.929736,702.501905 384.991229,702.518495 383.913126,702.629983 L382.36515,702.811917 C381.842082,702.870724 381.32327,702.916667 380.842703,702.916667 C378.529095,702.916667 376.827608,702.547619 374.866747,702.369048 L375.109057,702.233769 L375.315273,702.128382 C376.004207,701.798367 376.404491,701.864648 378.280097,701.964286 C377.066231,701.309524 372.947386,701.952381 372.729513,702.511905 C369.388787,702.809524 367.583551,703.595238 365.902813,704.416667 C366.151811,704.71131 366.734914,704.900484 367.39662,705.064546 L368.348394,705.285994 C369.163703,705.475744 369.920502,705.683333 370.177282,706.047619 L369.534036,705.97619 L369.326538,706.178571 C366.348935,706.309524 365.570815,705.738095 363.350582,705.630952 C361.400096,705.642857 361.711344,706.380952 360.362604,706.583333 C358.432868,706.869048 357.706623,706.083333 357.374626,706.309524 C356.420133,706.047619 358.111245,705.464286 356.523882,705.22619 C356.353515,705.241228 356.24539,705.27602 356.157353,705.317131 L355.995573,705.403795 C355.812265,705.503627 355.586862,705.589599 354.812019,705.5 L354.168774,705.428571 L353.525529,705.5 C353.743402,705.071429 354.272523,704.75 354.801644,704.416667 C351.772167,703.952381 350.132929,705.107143 348.825688,705.642857 C349.33406,705.988095 349.437809,706.440476 349.676432,706.869048 C349.199186,706.931548 348.779001,707.012649 348.369192,707.097284 L347.756423,707.225005 L347.365786,707.302501 C346.438787,707.478446 345.379917,707.612723 343.700476,707.547619 C342.880857,707.738095 344.136223,708.27381 343.275104,708.77381 C343.762725,709.071429 346.086708,708.77381 346.263082,709.178571 C345.433088,709.809524 342.652609,709.97619 340.287126,709.72619 C338.834637,709.714286 338.699763,710.119048 338.149892,710.404762 C333.430245,710.531385 331.592854,711.582448 330.131767,712.749428 L329.655238,713.141605 L329.185958,713.535714 L328.542712,713.464286 L327.899467,713.535714 L327.899467,713.404762 C324.527617,713.535714 323.064752,714.892857 322.348883,715.440476 C321.591513,716.011905 320.118274,716.154762 319.786277,716.666667 L319.268631,716.684223 L318.923763,716.705321 C314.52664,717.021897 311.31016,719.071056 318.074414,719.25 L318.117675,719.757347 L318.229326,720.869944 C318.388555,722.550069 318.360977,723.840722 316.798299,726.047619 C315.823056,726.119048 314.619565,726.321429 313.81032,726.047619 L313.354985,726.185188 L312.734404,726.357752 C311.119974,726.779146 309.743844,726.901738 306.558249,727 C305.603756,725.761905 305.479257,723.083333 305.282133,721.559524 C305.237669,721.215986 305.330408,720.868562 305.443716,720.525302 L305.582093,720.115905 L305.650686,719.892503 C305.827061,719.263092 305.820319,718.66604 304.856761,718.154762 C302.563903,718.047619 304.172016,718.690476 304.006017,718.833333 C303.296794,719.425781 301.911149,719.793925 300.40905,720.130526 L299.062578,720.42537 C298.250817,720.603919 297.452956,720.789683 296.753946,721.011905 C296.638692,722.299587 294.306786,722.879157 291.71782,723.378778 L289.780892,723.744019 L288.89107,723.921199 C288.016477,724.103359 287.196696,724.303385 286.513896,724.547619 L283.95129,724.547619 C284.395929,724.262755 284.487239,723.971817 284.511154,723.691075 L284.5222,723.441599 C284.536017,723.031857 284.5912,722.656037 285.652777,722.369048 C285.611278,722.02381 284.065414,722.154762 283.515543,721.964286 C281.980054,719.214286 287.686262,717.119048 293.755593,715.97619 L294.29163,715.689153 C294.651294,715.498677 295.024792,715.313492 295.467455,715.154762 C301.754659,714.5 302.055532,712.666667 304.006017,710.797619 C302.947775,710.166667 295.415581,710.333333 294.616711,711.071429 C294.927959,711.428571 296.017326,711.535714 296.328574,711.892857 C295.837494,712.115079 295.404053,712.355489 294.987039,712.60097 L293.884994,713.258391 L293.45636,713.49984 C291.800097,714.40001 289.659419,715.143739 284.812408,715.02381 C282.799673,714.666667 284.304037,713.595238 282.249802,713.52381 C282.938139,713.269689 283.906183,713.249348 284.966668,713.286768 L286.658618,713.366746 L287.375015,713.392857 C287.545306,713.322455 287.729653,713.251879 287.921523,713.18067 L288.856465,712.838485 C289.995873,712.413694 291.045949,711.944581 290.788365,711.345238 C290.497867,710.666667 288.215383,710.488095 286.949643,709.988095 C283.90979,710.285714 281.803681,710.880952 279.272199,711.345238 L279.064701,711.142857 L278.421455,711.214286 C277.259464,710.678571 273.742365,710.178571 271.594755,710.404762 C270.847761,710.142857 271.148634,709.369048 269.893268,708.77381 C269.094399,708.404762 267.953157,708.22619 266.90529,707.964286 L265.193427,707.964286 L265.411301,707.714286 L264.768056,707.559524 L265.600404,707.377761 C269.240338,706.55821 272.029055,705.566168 271.594755,703.75 C271.242008,703.404762 270.100766,703.321429 269.457521,703.071429 L268.306841,703.197592 L267.493755,703.294737 C265.27107,703.575819 263.395052,703.965753 263.056193,704.845238 C259.44572,704.690476 256.385117,705.011905 254.517631,704.845238 C253.625387,704.27381 255.596623,703.964286 256.229493,703.488095 C254.922253,702.845238 255.679622,701.964286 257.080237,701.452381 C254.932628,701.678571 253.801761,702.22619 251.104281,702.27381 C250.642996,702.771978 251.275784,703.037162 251.976659,703.258673 L252.699097,703.485216 L252.87405,703.549763 C253.339566,703.735622 253.524494,703.951192 252.816143,704.309524 C250.917532,704.309524 250.481786,703.72619 248.541675,703.488095 C246.954311,703.297619 244.412455,703.452381 242.991091,703.214286 C240.729357,702.845238 239.72299,701.97619 238.301625,701.452381 L236.164391,701.452381 C234.255405,701.821429 236.818011,702.797619 234.037531,702.809524 L233.394286,702.738095 L233.186788,702.940476 C231.568299,702.607143 227.605079,702.202381 225.498969,702.392857 C223.299485,702.595238 223.475859,703.25 222.085619,703.619048 C218.682644,703.619048 217.790401,704.428571 216.970782,705.25 L216.38957,705.325507 C216.290396,705.337384 216.190231,705.348958 216.089318,705.360305 L214.115078,705.571081 L213.606771,705.633182 C212.360107,705.79607 211.317189,706.023384 210.994826,706.47619 C211.057075,707.047619 212.654813,707.130952 212.706688,707.702381 L212.063443,707.77381 L211.845569,707.97619 C210.496829,707.72619 209.812084,707.261905 208.006847,707.154762 C203.512734,709.043264 200.899216,711.527329 198.401626,714.048207 L197.467017,714.994171 L196.586278,715.874407 C195.398789,717.043892 194.143672,718.191986 192.641585,719.261905 L191.746421,719.232084 C187.490905,719.121575 184.282743,719.49232 182.826907,720.071429 C181.872414,719.607143 179.579556,719.559524 179.413557,718.845238 C179.109226,718.626984 179.38681,718.591291 179.760834,718.585711 L180.285051,718.582451 C180.547882,718.575397 180.745006,718.547619 180.689673,718.440476 C179.289058,718.47619 178.842937,717.5 179.838929,717.214286 C179.658678,717.170996 179.468794,717.130742 179.273757,717.092102 L177.766591,716.806667 L177.453326,716.738816 C176.382149,716.493242 175.604074,716.153763 176.000207,715.440476 C175.367337,714.738095 172.856606,714.630952 173.012229,713.678571 C172.700982,713.166667 174.641092,713.380952 174.724092,713 C174.682592,712.488095 173.053729,712.988095 173.012229,712.72619 C173.852598,711.392857 174.475094,710.833333 176.425579,709.869048 L176.514483,709.953689 C176.675159,710.098057 176.941836,710.212857 178.562814,710.142857 C179.838929,710.047619 178.158192,709.845238 178.562814,709.595238 L179.056821,709.541351 L179.536359,709.478636 C184.059575,708.835088 185.301025,707.129214 181.12542,706.059524 C180.596299,705.916667 179.12306,705.880952 178.614688,705.666667 C178.697688,705.666667 177.929943,705.059524 177.743195,705.071429 C177.929943,704.952381 178.884436,704.642857 178.988186,704.702381 C177.597946,703.928571 174.900466,704.130952 173.012229,703.75 C172.502915,703.866342 172.090598,704.01343 171.707925,704.169881 L170.923291,704.505495 C169.913397,704.934766 168.775387,705.323016 166.18553,705.25 C166.610901,704.130952 163.695548,703.095238 161.496064,704.02381 C159.483329,703.988095 158.974958,703.47619 157.23197,703.345238 C153.994994,703.285714 154.389241,704.880952 155.105111,705.654762 L153.681997,705.961725 L152.991282,706.12219 C151.974374,706.369048 151.056816,706.647619 150.415645,707.011905 C146.535424,705.952381 142.167581,707.785714 141.887458,709.190476 C140.94334,708.928571 141.047089,708.511905 139.324852,708.238095 C135.973751,708.619048 133.068773,709.154762 131.222036,710.011905 C131.004163,711.011905 131.294661,711.642857 130.796664,712.321429 C129.645048,712.654762 128.431182,712.166667 126.532571,712.321429 C126.293948,712 126.459946,711.547619 126.107199,710.964286 L125.256455,710.964286 L125.048957,710.761905 L124.405711,710.833333 L124.405711,710.559524 C123.87659,710.190476 122.102478,710.214286 120.56699,710.154762 C118.305256,709.857143 119.456873,708.738095 118.429755,707.845238 C117.784508,707.280532 116.534029,706.947319 115.111235,706.650382 L113.500667,706.329288 C112.708607,706.171752 111.912643,706.004286 111.177684,705.797619 L111.820929,705.642857 L111.61343,705.392857 L113.74029,705.392857 C114.072287,704.916667 113.501666,704.738095 112.038802,704.845238 C111.935053,704.27381 113.273418,704.154762 113.74029,703.761905 C113.999663,702.797619 112.339675,702.52381 112.038802,701.452381 C112.401925,700.892857 114.134537,700.761905 114.601408,700.22619 C113.74029,699.738095 112.080302,699.5 110.762687,699.142857 C110.102238,699.108669 109.620049,699.129026 109.186431,699.164768 L108.421316,699.238117 C108.217638,699.257396 108.006947,699.274725 107.774709,699.285714 L106.457123,699.114913 L105.479302,698.998974 C103.304926,698.759272 101.81657,698.744306 99.6615181,699.142857 C96.9017884,698.47619 92.4716959,698.821429 89.4214683,699.142857 C88.957327,699.040518 88.4862403,698.940377 88.0115346,698.841374 L85.1464824,698.252525 L84.3231426,698.079805 C80.637678,697.296251 77.255618,696.41496 75.7680686,694.928571 C73.4959603,695.011905 72.7282159,694.619048 71.5039749,694.380952 C69.8751119,694.5 68.9206189,694.833333 68.090625,695.202381 L68.385418,695.423539 C68.626945,695.607143 68.8450301,695.794218 68.9413687,696.02381 C68.1044582,696.031812 67.6801136,696.168924 67.3248164,696.330274 L67.0255184,696.473834 C66.9572683,696.506878 66.8878255,696.539683 66.8145093,696.571429 C64.8640237,696.095238 61.2016756,696.309524 61.2639251,697.25 C62.4155416,698.059524 64.5631509,698.547619 65.1026469,699.559524 L64.4965965,699.492845 L64.8412126,699.650403 C64.9829079,699.719055 65.0523154,699.763675 65.1026469,699.821429 L64.4863764,699.490476 L64.4594016,699.488095 L64.2415282,699.690476 C63.0172872,699.535714 62.508916,699.333333 62.1042939,698.869048 C61.8760456,698.595238 60.7036792,698.642857 60.4028064,698.464286 C60.1123086,698.285714 61.0668015,698.178571 60.8281783,698.059524 C60.6103049,697.952381 59.6765618,697.988095 59.5520627,697.916667 C59.1059409,697.690476 59.4586884,697.190476 58.2655721,697.107143 C56.4707103,697.559524 54.063728,698.690476 51.0135004,697.916667 C49.859854,698.030538 50.1115231,698.242268 50.4850308,698.429765 L50.8881123,698.623592 C50.9732711,698.669081 51.026469,698.708333 51.0135004,698.738095 C50.8475016,699.119048 49.1978887,699.297619 49.7270098,699.821429 L48.8989047,700.005569 L48.4950922,700.101154 C46.9687605,700.474747 45.7237203,700.941297 45.888288,701.857143 C43.8085874,701.964286 43.8055006,702.50974 44.0265543,702.945798 L44.078614,703.040676 L44.1868005,703.214286 L43.4294311,703.166667 L44.1868005,703.357143 C43.8963026,703.333333 43.6369295,703.25 43.4294311,703.166667 L42.9106849,703.357143 C40.991324,703.416667 41.3751962,702.904762 38.6465912,702.952381 L38.6465912,702.130952 L36.5424196,701.995627 L35.2401211,701.900133 C30.5214907,701.531845 26.4807866,700.945967 24.9931915,699.547619 C24.5816528,699.539683 24.1343783,699.544974 23.697863,699.547619 L23.1821847,699.548508 C22.5094347,699.545291 21.9118391,699.519048 21.5798415,699.404762 C20.7290978,699.630952 20.3244757,700 19.0172353,700.083333 L19.2083553,699.989675 L19.2756954,699.94581 C19.3546279,699.882381 19.3222581,699.830952 19.0172353,699.809524 L18.7993619,699.607143 L18.5814885,699.809524 L18.3097801,699.749839 C17.6801538,699.591329 17.7870996,699.437042 18.0818531,699.263456 L18.5241119,699.026145 C18.764112,698.894453 18.9817091,698.749278 19.0068604,698.583333 C19.1002347,698.047619 17.9901179,697.440476 18.1561167,696.952381 C18.5296139,695.880952 21.3100935,695.72619 22.4202104,694.916667 C23.3020789,694.952381 22.8248324,695.428571 23.696326,695.464286 C25.2318147,695.095238 27.0370514,694.809524 27.9604197,694.238095 C26.6324294,693.77381 25.5741872,694.547619 23.696326,694.369048 C23.8934495,693.857143 25.4808129,693.797619 24.5574447,693.285714 C21.7147155,692.75 16.3508799,694.095238 12.1801606,693.559524 C11.7399029,693.609213 11.4540336,693.707872 11.1776054,693.809411 L10.9697897,693.885386 C10.5135438,694.048047 9.98654079,694.187888 8.76681062,694.107143 L9.06379281,694.674052 L9.16572139,694.854427 C9.67738982,695.71963 10.5064511,696.475998 13.4666511,696.559524 C13.5060852,697.089582 12.8175052,697.387985 12.0054902,697.647222 L11.3201469,697.856211 C10.8474433,697.999155 10.388491,698.14652 10.0533012,698.333333 C8.95355925,698.321429 9.44118067,697.797619 8.34143874,697.785714 C6.99269865,697.761905 6.92007418,698.142857 5.35346069,698.059524 C3.3096007,697.738095 1.58736334,697.321429 0,696.857143 L0,683 L1600,683 L1600,696.845238 L1598.897,696.789131 C1593.27963,696.466439 1588.93876,695.633117 1586.50222,694.190476 C1584.03299,694.297619 1582.85025,694 1580.52627,694.059524 C1579.37465,692.97619 1574.99643,692.916667 1571.98771,692.428571 L1572.20558,692.22619 L1571.56233,692.154762 C1572.49608,691.869048 1571.35484,691.761905 1571.56233,691.333333 C1569.1346,691.464286 1568.10748,690.595238 1566.01175,691.059524 L1565.80425,690.857143 L1565.58638,690.654762 C1566.1155,690.214286 1564.20651,690.547619 1564.73563,690.107143 C1563.88074,690.088095 1563.54376,690.229048 1563.25194,690.38981 L1563.03415,690.511905 C1563.85377,690.571429 1564.11314,690.809524 1565.17138,690.785714 L1564.96388,690.988095 L1565.59675,691.059524 L1565.34607,691.371693 L1565.11643,691.64418 C1564.81287,691.982804 1564.49701,692.22619 1563.89527,692.416667 C1562.96152,692.297619 1562.94077,691.904762 1561.75803,691.869048 C1560.66866,691.892857 1560.90729,692.333333 1560.90729,692.690476 C1563.32464,692.690476 1561.85141,693.309524 1562.60877,693.642857 C1564.52814,692.952381 1564.50739,692.178571 1567.30862,691.607143 C1567.86886,692.02381 1569.22798,692.178571 1571.14734,692.154762 L1570.92946,692.357143 L1571.14734,692.559524 C1566.92474,692.964286 1572.24708,694.845238 1571.14734,695.821429 C1570.26547,695.285714 1568.07636,695.166667 1566.02212,695 C1566.31262,695.678571 1567.65099,696.02381 1568.15936,696.630952 C1567.39161,696.607143 1567.25674,696.797619 1566.4475,696.761905 L1566.02212,696.690476 C1566.00137,696.785714 1565.908,696.869048 1565.81463,696.964286 L1566.45787,697.035714 C1568.08673,697.511905 1570.13059,697.857143 1571.14734,698.535714 C1572.41792,698.697061 1573.78161,698.849711 1575.19719,699.000035 L1580.26851,699.523722 L1583.85216,699.910088 L1585.76898,700.136796 C1592.58184,700.978527 1598.30888,702.117999 1598.45414,704.25 C1596.97651,705.092491 1594.02125,705.301493 1591.06787,705.330267 L1589.91557,705.333333 C1585.90048,705.309524 1582.6635,705.964286 1577.97404,705.464286 C1577.21667,705.380952 1576.3763,705 1575.41143,704.916667 C1571.03321,704.547619 1566.06362,704.547619 1562.1834,704.095238 C1560.19142,703.869048 1558.9568,703.321429 1557.05819,703.416667 C1556.21782,703.321429 1556.09332,703 1555.3567,702.869048 C1553.97684,702.904762 1553.55147,702.630952 1551.94335,702.738095 C1551.37273,702.440476 1552.15085,702.333333 1551.51798,701.916667 C1548.91388,701.833333 1546.70402,700.940476 1543.40479,700.690476 C1543.17654,700.452381 1543.18692,700.130952 1542.55405,700.011905 C1542.2428,699.547619 1544.28666,699.845238 1543.84054,699.333333 C1543.16617,699.178571 1542.31542,699.702381 1541.27793,699.607143 C1540.92518,700.666667 1542.55405,701.535714 1540.42719,702.059524 C1539.28595,701.702381 1539.55569,700.892857 1537.86458,700.702381 C1535.9556,700.72619 1534.77285,700.988095 1533.60049,701.25 C1533.90136,701.75 1532.87424,701.833333 1533.17512,702.333333 C1530.49839,703.107143 1528.40265,704.071429 1527.19916,705.321429 C1527.0717,705.420068 1526.8011,705.509961 1526.50135,705.596661 L1525.77408,705.804647 L1525.60149,705.862405 C1525.25403,705.988256 1525.09713,706.1196 1525.4873,706.27381 C1526.50404,706.452381 1527.90465,706.5 1528.90065,706.678571 C1529.3772,706.859127 1529.12709,706.963677 1528.7919,707.066812 L1528.54854,707.140659 C1528.18471,707.254905 1527.89724,707.387755 1528.47528,707.630952 C1528.70352,707.845238 1528.9214,707.642857 1528.90065,707.5 C1530.79926,707.72619 1530.74738,708.416667 1531.88863,708.857143 C1533.59011,709.511905 1535.81035,709.964286 1537.86458,710.619048 L1538.93153,710.959808 L1540.32102,711.386571 C1542.23887,711.964023 1544.38655,712.565306 1546.39277,713.071429 C1545.29303,713.309524 1543.66416,713.380952 1542.55405,713.619048 C1539.48307,713.047619 1537.65708,711.392857 1533.16474,710.892857 C1532.76012,710.071429 1531.401,709.559524 1529.32602,709.261905 C1529.27683,708.684989 1528.38996,708.372326 1527.40536,708.089023 L1526.61394,707.865079 C1525.99106,707.685185 1525.40776,707.492063 1525.05155,707.22619 C1521.69008,707.309524 1519.55284,708.619048 1517.37411,707.904762 C1518.8266,707.809524 1518.2041,707.107143 1519.51134,706.547619 C1519.40759,706.059524 1517.35336,705.702381 1518.23523,705.321429 L1518.87847,705.392857 L1517.59198,704.714286 L1517.80985,704.916667 C1517.25998,705.107143 1515.78674,705 1515.24725,705.190476 L1514.94637,704.964286 L1514.38613,704.785714 C1514.3135,704.452381 1515.05012,704.369048 1515.23687,704.107143 C1515.34062,703.571429 1513.64951,703.619048 1512.67427,703.428571 C1512.77878,702.934744 1511.96883,702.737736 1511.04971,702.574946 L1510.70149,702.514991 C1510.17622,702.425926 1509.64825,702.337302 1509.26092,702.202381 C1502.69359,702.190476 1497.75513,700.154762 1492.61954,700.97619 L1491.97629,701.047619 L1491.75842,701.25 C1491.32267,701.229167 1491.08551,701.144531 1490.89402,701.045939 L1490.63874,700.903035 C1490.48993,700.820821 1490.32372,700.744898 1490.05693,700.702381 C1486.40496,700.845238 1485.07697,701.547619 1481.093,701.25 L1480.78156,701.306329 L1480.48537,701.367626 C1479.67309,701.549968 1479.11238,701.812925 1479.38114,702.333333 L1478.94927,702.446739 L1478.36086,702.578682 L1477.1384,702.826179 C1476.00388,703.060987 1474.97698,703.328028 1474.69167,703.833333 C1476.34128,704.666667 1479.65088,705.321429 1481.94374,706.142857 C1482.31724,706.27381 1483.8631,707.261905 1484.08098,707.642857 C1484.2366,707.916667 1483.36511,708.369048 1483.6556,708.72619 C1484.0689,709.221981 1485.06802,709.600676 1486.17392,709.951274 L1487.91426,710.486621 L1488.35544,710.630952 L1488.56294,710.77381 C1489.25806,710.785714 1489.92206,710.833333 1490.27481,710.97619 L1490.49268,710.77381 C1491.74804,710.5 1494.27953,711.011905 1495.18214,711.595238 C1493.15125,712.415179 1493.61601,713.374173 1494.27699,714.312074 L1494.70536,714.909168 C1494.98774,715.315926 1495.21258,715.711905 1495.18214,716.083333 C1492.58841,717.595238 1485.00434,720.107143 1478.96614,718.392857 C1478.73789,717.559524 1478.41627,716.607143 1477.69002,715.809524 C1477.05715,715.107143 1476.27903,714.261905 1475.56316,713.77381 C1474.38042,712.964286 1471.50657,712.428571 1471.29907,711.464286 L1471.01577,711.388067 L1470.61023,711.266343 C1470.24328,711.159834 1469.83222,711.06685 1469.16184,711.059524 C1470.43795,709.892857 1468.29034,708.964286 1466.17386,709.02381 C1463.9225,709.083333 1463.23775,710.642857 1460.62327,711.333333 C1459.33678,711.678571 1458.39266,711.511905 1457.6353,711.880952 C1457.77017,712.190476 1457.56267,712.404762 1457.20992,712.559524 C1456.83643,713 1458.62091,712.75 1458.48604,713.107143 C1457.1788,713.916667 1456.41105,714.892857 1454.22195,715.416667 C1456.31768,716.869048 1452.75908,718.607143 1452.51008,720.178571 C1450.54922,720.114286 1450.69862,719.424286 1451.09378,718.805429 L1451.18488,718.669359 L1451.50613,718.230012 C1451.62093,718.068204 1451.69418,717.939594 1451.65934,717.869048 C1450.6426,717.22619 1449.96823,717.190476 1449.53248,716.511905 C1447.70649,716.297619 1446.45113,715.892857 1444.40727,716.107143 C1445.41791,715.848739 1446.03599,715.470217 1446.6048,715.075797 L1446.98049,714.811639 C1447.3564,714.547413 1447.74433,714.286415 1448.24599,714.059524 C1445.96351,712.702381 1449.62585,710.690476 1448.24599,709.297619 C1450.36247,709.5 1448.89961,708.52381 1449.09673,708.214286 L1449.38873,707.743238 C1449.55032,707.488095 1449.73583,707.216667 1449.94748,706.988095 C1449.96823,706.964286 1450.77747,707.011905 1450.79822,706.988095 C1450.99534,706.785714 1450.6841,706.52381 1450.79822,706.309524 C1450.96422,706 1452.14696,705.678571 1452.07434,705.22619 C1452.06396,705.142857 1451.22359,704.821429 1451.22359,704.821429 C1451.36884,704.464286 1451.6775,704.142857 1452.0082,703.833333 L1452.40657,703.466095 C1452.602,703.28381 1452.78502,703.102381 1452.92508,702.916667 C1452.4719,702.501905 1451.5334,702.518495 1450.45529,702.629983 L1448.90732,702.811917 C1448.38425,702.870724 1447.86544,702.916667 1447.38487,702.916667 C1445.07126,702.916667 1443.36978,702.547619 1441.40891,702.369048 L1441.65122,702.233769 L1441.85744,702.128382 C1442.54637,701.798367 1442.94666,701.864648 1444.82226,701.964286 C1443.6084,701.309524 1439.48955,701.952381 1439.27168,702.511905 C1435.93095,702.809524 1434.12572,703.595238 1432.44498,704.416667 C1432.69398,704.71131 1433.27708,704.900484 1433.93879,705.064546 L1434.89056,705.285994 C1435.70587,705.475744 1436.46267,705.683333 1436.71945,706.047619 L1436.0762,705.97619 L1435.86871,706.178571 C1432.8911,706.309524 1432.11298,705.738095 1429.89275,705.630952 C1427.94226,705.642857 1428.25351,706.380952 1426.90477,706.583333 C1424.97504,706.869048 1424.24879,706.083333 1423.91679,706.309524 C1422.9623,706.047619 1424.65341,705.464286 1423.06605,705.22619 C1422.89568,705.241228 1422.78756,705.27602 1422.69952,705.317131 L1422.53774,705.403795 C1422.35443,705.503627 1422.12903,705.589599 1421.35419,705.5 L1420.71094,705.428571 L1420.0677,705.5 C1420.28557,705.071429 1420.81469,704.75 1421.34381,704.416667 C1418.31433,703.952381 1416.6751,705.107143 1415.36786,705.642857 C1415.87623,705.988095 1415.97998,706.440476 1416.2186,706.869048 C1415.74135,706.931548 1415.32117,707.012649 1414.91136,707.097284 L1414.29859,707.225005 L1413.90795,707.302501 C1412.98095,707.478446 1411.92208,707.612723 1410.24264,707.547619 C1409.42302,707.738095 1410.67839,708.27381 1409.81727,708.77381 C1410.30489,709.071429 1412.62888,708.77381 1412.80525,709.178571 C1411.97526,709.809524 1409.19478,709.97619 1406.82929,709.72619 C1405.3768,709.714286 1405.24193,710.119048 1404.69206,710.404762 C1399.97241,710.531385 1398.13502,711.582448 1396.67393,712.749428 L1396.19741,713.141605 L1395.72813,713.535714 L1395.08488,713.464286 L1394.44163,713.535714 L1394.44163,713.404762 C1391.06978,713.535714 1389.60692,714.892857 1388.89105,715.440476 C1388.13368,716.011905 1386.66044,716.154762 1386.32844,716.666667 L1385.8108,716.684223 L1385.46593,716.705321 C1381.06881,717.021897 1377.85233,719.071056 1384.61658,719.25 L1384.65984,719.757347 L1384.77149,720.869944 C1384.93072,722.550069 1384.90314,723.840722 1383.34047,726.047619 C1382.36522,726.119048 1381.16173,726.321429 1380.35249,726.047619 L1379.89715,726.185188 L1379.27657,726.357752 C1377.66214,726.779146 1376.28601,726.901738 1373.10042,727 C1372.14592,725.761905 1372.02142,723.083333 1371.8243,721.559524 C1371.77984,721.215986 1371.87258,720.868562 1371.98588,720.525302 L1372.12426,720.115905 L1372.19285,719.892503 C1372.36923,719.263092 1372.36249,718.66604 1371.39893,718.154762 C1369.10607,718.047619 1370.71418,718.690476 1370.54819,718.833333 C1369.83896,719.425781 1368.45332,719.793925 1366.95122,720.130526 L1365.60475,720.42537 C1364.79298,720.603919 1363.99512,720.789683 1363.29611,721.011905 C1363.18086,722.299587 1360.84895,722.879157 1358.25999,723.378778 L1356.32306,723.744019 L1355.43324,723.921199 C1354.55864,724.103359 1353.73886,724.303385 1353.05606,724.547619 L1350.49346,724.547619 C1350.9381,724.262755 1351.02941,723.971817 1351.05332,723.691075 L1351.06437,723.441599 C1351.07818,723.031857 1351.13337,722.656037 1352.19494,722.369048 C1352.15345,722.02381 1350.60758,722.154762 1350.05771,721.964286 C1348.52222,719.214286 1354.22843,717.119048 1360.29776,715.97619 L1360.8338,715.689153 C1361.19346,715.498677 1361.56696,715.313492 1362.00962,715.154762 C1368.29683,714.5 1368.5977,712.666667 1370.54819,710.797619 C1369.48994,710.166667 1361.95775,710.333333 1361.15888,711.071429 C1361.47013,711.428571 1362.55949,711.535714 1362.87074,711.892857 C1362.37966,712.115079 1361.94622,712.355489 1361.52921,712.60097 L1360.42716,713.258391 L1359.99853,713.49984 C1358.34227,714.40001 1356.20159,715.143739 1351.35458,715.02381 C1349.34184,714.666667 1350.8462,713.595238 1348.79197,713.52381 C1349.48031,713.269689 1350.44835,713.249348 1351.50884,713.286768 L1353.20079,713.366746 L1353.91718,713.392857 C1354.08747,713.322455 1354.27182,713.251879 1354.46369,713.18067 L1355.39863,712.838485 C1356.53804,712.413694 1357.58812,711.944581 1357.33053,711.345238 C1357.04003,710.666667 1354.75755,710.488095 1353.49181,709.988095 C1350.45196,710.285714 1348.34585,710.880952 1345.81437,711.345238 L1345.60687,711.142857 L1344.96362,711.214286 C1343.80163,710.678571 1340.28453,710.178571 1338.13692,710.404762 C1337.38993,710.142857 1337.6908,709.369048 1336.43544,708.77381 C1335.63657,708.404762 1334.49532,708.22619 1333.44746,707.964286 L1331.7356,707.964286 L1331.95347,707.714286 L1331.31022,707.559524 L1332.14257,707.377761 C1335.78251,706.55821 1338.57122,705.566168 1338.13692,703.75 C1337.78418,703.404762 1336.64293,703.321429 1335.99969,703.071429 L1334.84901,703.197592 L1334.03592,703.294737 C1331.81324,703.575819 1329.93722,703.965753 1329.59836,704.845238 C1325.98789,704.690476 1322.92728,705.011905 1321.0598,704.845238 C1320.16756,704.27381 1322.13879,703.964286 1322.77166,703.488095 C1321.46442,702.845238 1322.22179,701.964286 1323.6224,701.452381 C1321.4748,701.678571 1320.34393,702.22619 1317.64645,702.27381 C1317.18516,702.771978 1317.81795,703.037162 1318.51883,703.258673 L1319.24126,703.485216 L1319.41622,703.549763 C1319.88173,703.735622 1320.06666,703.951192 1319.35831,704.309524 C1317.4597,704.309524 1317.02395,703.72619 1315.08384,703.488095 C1313.49648,703.297619 1310.95462,703.452381 1309.53326,703.214286 C1307.27152,702.845238 1306.26516,701.97619 1304.84379,701.452381 L1302.70656,701.452381 C1301.96963,701.594844 1301.89906,701.827783 1301.93024,702.0608 L1301.96994,702.264881 L1301.98148,702.34683 C1302.00192,702.601413 1301.83753,702.804138 1300.5797,702.809524 L1299.93645,702.738095 L1299.72896,702.940476 C1298.11047,702.607143 1294.14725,702.202381 1292.04114,702.392857 C1289.84165,702.595238 1290.01803,703.25 1288.62779,703.619048 C1285.22481,703.619048 1284.33257,704.428571 1283.51295,705.25 L1282.93174,705.325507 C1282.83256,705.337384 1282.7324,705.348958 1282.63149,705.360305 L1280.65725,705.571081 L1280.14894,705.633182 C1278.90227,705.79607 1277.85936,706.023384 1277.53699,706.47619 C1277.59924,707.047619 1279.19698,707.130952 1279.24886,707.702381 L1278.60561,707.77381 L1278.38774,707.97619 C1277.039,707.72619 1276.35425,707.261905 1274.54902,707.154762 C1270.0549,709.043264 1267.44138,711.527329 1264.94379,714.048207 L1264.00918,714.994171 L1263.12845,715.874407 C1261.94096,717.043892 1260.68584,718.191986 1259.18375,719.261905 L1258.28859,719.232084 C1254.03307,719.121575 1250.82491,719.49232 1249.36907,720.071429 C1248.41458,719.607143 1246.12172,719.559524 1245.95573,718.845238 C1245.65139,718.626984 1245.92898,718.591291 1246.303,718.585711 L1246.82722,718.582451 C1247.09005,718.575397 1247.28717,718.547619 1247.23184,718.440476 C1245.83123,718.47619 1245.3851,717.5 1246.3811,717.214286 C1246.20085,717.170996 1246.01096,717.130742 1245.81592,717.092102 L1244.30876,716.806667 L1243.99549,716.738816 C1242.92432,716.493242 1242.14624,716.153763 1242.54238,715.440476 C1241.9095,714.738095 1239.39877,714.630952 1239.5544,713.678571 C1239.24315,713.166667 1241.18326,713.380952 1241.26626,713 C1241.22476,712.488095 1239.5959,712.988095 1239.5544,712.72619 C1240.39477,711.392857 1241.01726,710.833333 1242.96775,709.869048 L1243.05665,709.953689 C1243.21733,710.098057 1243.484,710.212857 1245.10498,710.142857 C1246.3811,710.047619 1244.70036,709.845238 1245.10498,709.595238 L1245.59899,709.541351 L1246.07853,709.478636 C1250.60174,708.835088 1251.84319,707.129214 1247.66759,706.059524 C1247.13847,705.916667 1245.66523,705.880952 1245.15686,705.666667 C1245.23986,705.666667 1244.47211,705.059524 1244.28536,705.071429 C1244.47211,704.952381 1245.4266,704.642857 1245.53035,704.702381 C1244.14011,703.928571 1241.44263,704.130952 1239.5544,703.75 C1239.04508,703.866342 1238.63277,704.01343 1238.25009,704.169881 L1237.46546,704.505495 C1236.45556,704.934766 1235.31755,705.323016 1232.7277,705.25 C1233.15307,704.130952 1230.23772,703.095238 1228.03823,704.02381 C1226.0255,703.988095 1225.51713,703.47619 1223.77414,703.345238 C1220.53716,703.285714 1220.93141,704.880952 1221.64728,705.654762 L1220.22416,705.961725 L1219.53345,706.12219 C1218.51654,706.369048 1217.59898,706.647619 1216.95781,707.011905 C1213.07759,705.952381 1208.70975,707.785714 1208.42963,709.190476 C1207.48551,708.928571 1207.58926,708.511905 1205.86702,708.238095 C1202.51592,708.619048 1199.61094,709.154762 1197.7642,710.011905 C1197.54633,711.011905 1197.83683,711.642857 1197.33883,712.321429 C1196.18722,712.654762 1194.97335,712.166667 1193.07474,712.321429 C1192.83612,712 1193.00211,711.547619 1192.64937,710.964286 L1191.79862,710.964286 L1191.59112,710.761905 L1190.94788,710.833333 L1190.94788,710.559524 C1190.41876,710.190476 1188.64465,710.214286 1187.10916,710.154762 C1184.84742,709.857143 1185.99904,708.738095 1184.97192,707.845238 C1184.32668,707.280532 1183.0762,706.947319 1181.6534,706.650382 L1180.04283,706.329288 C1179.25077,706.171752 1178.45481,706.004286 1177.71985,705.797619 L1178.3631,705.642857 L1178.1556,705.392857 L1180.28246,705.392857 C1180.61445,704.916667 1180.04383,704.738095 1178.58097,704.845238 C1178.47722,704.27381 1179.81559,704.154762 1180.28246,703.761905 C1180.54183,702.797619 1178.88184,702.52381 1178.58097,701.452381 C1178.94409,700.892857 1180.6767,700.761905 1181.14358,700.22619 C1180.28246,699.738095 1178.62247,699.5 1177.30485,699.142857 C1176.64441,699.108669 1176.16222,699.129026 1175.7286,699.164768 L1174.96348,699.238117 C1174.75981,699.257396 1174.54911,699.274725 1174.31688,699.285714 L1172.99929,699.114913 L1172.02147,698.998974 C1169.84709,698.759272 1168.35874,698.744306 1166.20369,699.142857 C1163.44396,698.47619 1159.01386,698.821429 1155.96364,699.142857 C1155.49949,699.040518 1155.02841,698.940377 1154.5537,698.841374 L1151.68865,698.252525 L1150.86531,698.079805 C1147.17985,697.296251 1143.79779,696.41496 1142.31024,694.928571 C1140.03813,695.011905 1139.27038,694.619048 1138.04614,694.380952 C1136.41728,694.5 1135.46279,694.833333 1134.63279,695.202381 L1134.92759,695.423539 C1135.16911,695.607143 1135.3872,695.794218 1135.48354,696.02381 C1134.64663,696.031812 1134.22228,696.168924 1133.86698,696.330274 L1133.56769,696.473834 C1133.49944,696.506878 1133.42999,696.539683 1133.35668,696.571429 C1131.40619,696.095238 1127.74384,696.309524 1127.80609,697.25 C1128.95771,698.059524 1131.10532,698.547619 1131.64481,699.559524 L1131.03876,699.492845 L1131.38338,699.650403 C1131.52508,699.719055 1131.59448,699.763675 1131.64481,699.821429 L1131.02854,699.490476 L1131.00157,699.488095 L1130.7837,699.690476 C1129.55945,699.535714 1129.05108,699.333333 1128.64646,698.869048 C1128.41821,698.595238 1127.24585,698.642857 1126.94497,698.464286 C1126.65448,698.285714 1127.60897,698.178571 1127.37035,698.059524 C1127.15247,697.952381 1126.21873,697.988095 1126.09423,697.916667 C1125.64811,697.690476 1126.00086,697.190476 1124.80774,697.107143 C1123.01288,697.559524 1120.6059,698.690476 1117.55567,697.916667 C1116.40202,698.030538 1116.65369,698.242268 1117.0272,698.429765 L1117.43028,698.623592 C1117.51544,698.669081 1117.56864,698.708333 1117.55567,698.738095 C1117.38967,699.119048 1115.74006,699.297619 1116.26918,699.821429 L1115.44107,700.005569 L1115.03726,700.101154 C1113.51093,700.474747 1112.26589,700.941297 1112.43046,701.857143 C1110.35075,701.964286 1110.34767,702.50974 1110.56872,702.945798 L1110.62078,703.040676 L1110.72897,703.214286 L1109.9716,703.166667 L1110.72897,703.357143 C1110.49657,703.338095 1110.28409,703.280952 1110.10216,703.21619 L1109.9716,703.166667 L1109.45285,703.357143 Z M1453,725.897696 L1453.29126,725.789305 L1453.47079,725.712552 C1453.78198,725.566485 1453.97849,725.386446 1453.79787,725.097696 C1456.2596,725.037696 1454.40114,725.997696 1453,725.897696 Z M921,725.897696 L921.291256,725.789305 L921.470793,725.712552 C921.781984,725.566485 921.978487,725.386446 921.797872,725.097696 C924.259597,725.037696 922.40114,725.997696 921,725.897696 Z M388,725.897696 L388.291256,725.789305 L388.470793,725.712552 C388.781984,725.566485 388.978487,725.386446 388.797872,725.097696 C391.259597,725.037696 389.40114,725.997696 388,725.897696 Z M1417,722.213689 L1416.80691,722.384329 L1416.70134,722.467849 C1416.43806,722.658389 1416.03301,722.811689 1415,722.783689 C1415.74757,722.613689 1415.60194,722.193689 1417,722.213689 Z M351,722.213689 L350.806913,722.384329 L350.70134,722.467849 C350.438058,722.658389 350.03301,722.811689 349,722.783689 C349.747573,722.613689 349.601942,722.193689 351,722.213689 Z M884,722.213689 L883.806913,722.384329 L883.70134,722.467849 C883.438058,722.658389 883.03301,722.811689 882,722.783689 C882.747573,722.613689 882.601942,722.193689 884,722.213689 Z M932,715 C928.914683,717.571835 926.930556,720.815078 922,723 L932,715 Z M399,715 C395.914683,717.571835 393.930556,720.815078 389,723 L399,715 Z M1466,715 C1462.91468,717.571835 1460.93056,720.815078 1456,723 L1466,715 Z M329,714 L322,723 C323.476401,719.925 325.943953,716.925 329,714 Z M862,714 L855,723 C856.476401,719.925 858.943953,716.925 862,714 Z M1396,714 L1389,723 C1390.4764,719.925 1392.94395,716.925 1396,714 Z M424.732167,721.27 L424.867859,721.279942 C425.068211,721.304517 425.013261,721.362663 424.884397,721.432215 L424.640853,721.550741 C424.506828,721.615556 424.390182,721.68 424.406088,721.73 C423.726096,721.655357 424.034868,721.502436 424.360773,721.38997 L424.732167,721.27 Z M956.732167,721.27 L956.867859,721.279942 C957.068211,721.304517 957.013261,721.362663 956.884397,721.432215 L956.640853,721.550741 C956.506828,721.615556 956.390182,721.68 956.406088,721.73 C955.726096,721.655357 956.034868,721.502436 956.360773,721.38997 L956.732167,721.27 Z M1489.73217,721.27 L1489.86786,721.279942 C1490.06821,721.304517 1490.01326,721.362663 1489.8844,721.432215 L1489.64085,721.550741 C1489.50683,721.615556 1489.39018,721.68 1489.40609,721.73 C1488.7261,721.655357 1489.03487,721.502436 1489.36077,721.38997 L1489.73217,721.27 Z M335.657974,712 C337.436267,714.775 331.907205,717.3375 327.676093,719 C326.378143,718.85 327.502351,718.3 326,718 C326.878927,717.2125 329.301085,716.55 327.676093,715.7125 C328.688963,715.275735 329.391441,714.820052 330.02854,714.376699 L330.584006,713.986668 C331.731908,713.184256 332.904565,712.455882 335.657974,712 Z M869.657974,712 C871.436267,714.775 865.907205,717.3375 861.676093,719 C860.378143,718.85 861.502351,718.3 860,718 C860.878927,717.2125 863.301085,716.55 861.676093,715.7125 C862.688963,715.275735 863.391441,714.820052 864.02854,714.376699 L864.584006,713.986668 C865.731908,713.184256 866.904565,712.455882 869.657974,712 Z M1402.65797,712 C1404.43627,714.775 1398.90721,717.3375 1394.67609,719 C1393.37814,718.85 1394.50235,718.3 1393,718 C1393.87893,717.2125 1396.30109,716.55 1394.67609,715.7125 C1395.68896,715.275735 1396.39144,714.820052 1397.02854,714.376699 L1397.58401,713.986668 C1398.73191,713.184256 1399.90456,712.455882 1402.65797,712 Z M126.427537,717.099505 L126.996655,717.269505 L127.897758,717.209505 C128.33554,717.726428 127.338743,717.919564 125.457572,717.899027 L125,717.890505 L125.094113,717.861141 C125.656186,717.654719 125.326117,717.24038 126.229734,717.119598 L126.427537,717.099505 Z M660.427537,717.099505 L660.996655,717.269505 L661.897758,717.209505 C662.33554,717.726428 661.338743,717.919564 659.457572,717.899027 L659,717.890505 L659.094113,717.861141 C659.656186,717.654719 659.326117,717.24038 660.229734,717.119598 L660.427537,717.099505 Z M1193.42754,717.099505 L1193.99665,717.269505 L1194.89776,717.209505 C1195.33554,717.726428 1194.33874,717.919564 1192.45757,717.899027 L1192,717.890505 L1192.09411,717.861141 C1192.65619,717.654719 1192.32612,717.24038 1193.22973,717.119598 L1193.42754,717.099505 Z M36,715.168203 C35.9541547,715.608203 35.4154728,715.938203 33.1690544,715.848203 L33.4097421,715.678203 L33.3756887,715.675052 L32.9713967,715.759517 C32.6900108,715.816998 32.3786768,715.87229 32,715.898203 L33.3684814,715.675203 L32.7243553,715.620203 L32.8638586,715.579162 C33.7270898,715.31104 34.3711444,714.951732 36,715.168203 Z M569,715.168203 C568.954155,715.608203 568.415473,715.938203 566.169054,715.848203 L566.409742,715.678203 L566.375689,715.675052 L565.971397,715.759517 C565.690011,715.816998 565.378677,715.87229 565,715.898203 L566.368481,715.675203 L565.724355,715.620203 L565.863859,715.579162 C566.72709,715.31104 567.371144,714.951732 569,715.168203 Z M1103,715.168203 C1102.95415,715.608203 1102.41547,715.938203 1100.16905,715.848203 L1100.40974,715.678203 L1100.37569,715.675052 L1099.9714,715.759517 C1099.69001,715.816998 1099.37868,715.87229 1099,715.898203 L1100.36848,715.675203 L1099.72436,715.620203 L1099.86386,715.579162 C1100.72709,715.31104 1101.37114,714.951732 1103,715.168203 Z M1196.93676,713.284891 C1197.04176,713.424891 1196.92898,713.507044 1196.79097,713.580973 L1196.67098,713.643484 C1196.61239,713.674891 1196.55926,713.707391 1196.52676,713.744891 C1195.79676,713.774891 1195.79676,713.104891 1196.93676,713.284891 Z M129.936763,713.284891 C130.041763,713.424891 129.928985,713.507044 129.79097,713.580973 L129.670981,713.643484 C129.612388,713.674891 129.559263,713.707391 129.526763,713.744891 C128.796763,713.774891 128.796763,713.104891 129.936763,713.284891 Z M663.936763,713.284891 C664.041763,713.424891 663.928985,713.507044 663.79097,713.580973 L663.670981,713.643484 C663.612388,713.674891 663.559263,713.707391 663.526763,713.744891 C662.796763,713.774891 662.796763,713.104891 663.936763,713.284891 Z M1287.50515,705 L1288.10103,705.10769 L1288.92321,705.264484 C1289.93309,705.450556 1290.73785,705.534473 1293.02062,705.393822 L1293.02062,705.405405 C1294.6701,705.810811 1294.70103,706.725869 1295.56701,707.3861 L1296,707.779923 C1294.38144,708.046332 1294.71134,708.938224 1292.60825,708.706564 C1293.26546,709.158301 1292.47294,709.570946 1291.67026,709.939611 L1291.4419,710.043744 C1291.25343,710.129516 1291.07216,710.212769 1290.91753,710.293436 L1291.01324,710.466468 L1291.10924,710.659229 C1291.65661,711.823593 1291.93097,713.646092 1289.21649,714 L1288.57732,713.930502 L1287.93814,714 C1286.75258,712.42471 1284.59794,710.583012 1282,709.366795 C1282.71134,709.239382 1283.08247,708.996139 1282.84536,708.567568 L1283.61443,708.635907 L1282.84536,708.370656 C1283.0232,708.414093 1283.24742,708.483591 1283.43976,708.559604 L1283.61546,708.635907 L1284.1134,708.440154 L1284.53608,708.440154 C1285.84536,708.069498 1283.79381,707.617761 1284.1134,707.119691 C1285.21649,706.760618 1285.39175,707.281853 1286.65979,707.247104 C1289.31959,706.702703 1286.61856,705.359073 1287.50515,705 Z M755.505155,705 L756.101028,705.10769 L756.923206,705.264484 C757.933095,705.450556 758.73785,705.534473 761.020619,705.393822 L761.020619,705.405405 C762.670103,705.810811 762.701031,706.725869 763.56701,707.3861 L764,707.779923 C762.381443,708.046332 762.71134,708.938224 760.608247,708.706564 C761.265464,709.158301 760.472938,709.570946 759.670264,709.939611 L759.441896,710.043744 C759.253432,710.129516 759.072165,710.212769 758.917526,710.293436 L759.013244,710.466468 L759.109244,710.659229 C759.656605,711.823593 759.93097,713.646092 757.216495,714 L756.57732,713.930502 L755.938144,714 C754.752577,712.42471 752.597938,710.583012 750,709.366795 C750.71134,709.239382 751.082474,708.996139 750.845361,708.567568 L751.614433,708.635907 L750.845361,708.370656 C751.023196,708.414093 751.247423,708.483591 751.439755,708.559604 L751.615464,708.635907 L752.113402,708.440154 L752.536082,708.440154 C753.845361,708.069498 751.793814,707.617761 752.113402,707.119691 C753.216495,706.760618 753.391753,707.281853 754.659794,707.247104 C757.319588,706.702703 754.618557,705.359073 755.505155,705 Z M222.505155,705 L223.101028,705.10769 L223.923206,705.264484 C224.933095,705.450556 225.73785,705.534473 228.020619,705.393822 L228.020619,705.405405 C229.670103,705.810811 229.701031,706.725869 230.56701,707.3861 L231,707.779923 C229.381443,708.046332 229.71134,708.938224 227.608247,708.706564 C228.265464,709.158301 227.472938,709.570946 226.670264,709.939611 L226.441896,710.043744 C226.253432,710.129516 226.072165,710.212769 225.917526,710.293436 L226.013244,710.466468 L226.109244,710.659229 C226.656605,711.823593 226.93097,713.646092 224.216495,714 L223.57732,713.930502 L222.938144,714 C221.752577,712.42471 219.597938,710.583012 217,709.366795 C217.71134,709.239382 218.082474,708.996139 217.845361,708.567568 L218.614433,708.635907 L217.845361,708.370656 C218.023196,708.414093 218.247423,708.483591 218.439755,708.559604 L218.615464,708.635907 L219.113402,708.440154 L219.536082,708.440154 C220.845361,708.069498 218.793814,707.617761 219.113402,707.119691 C220.216495,706.760618 220.391753,707.281853 221.659794,707.247104 C224.319588,706.702703 221.618557,705.359073 222.505155,705 Z M1466.6382,713.1 C1467.46157,713.28 1466.66735,713.79 1466.33946,713.9 C1465.29021,713.64 1467.04624,713.49 1466.6382,713.1 Z M399.638203,713.1 C400.461571,713.28 399.667349,713.79 399.339459,713.9 C398.290211,713.64 400.046243,713.49 399.638203,713.1 Z M932.638203,713.1 C933.461571,713.28 932.667349,713.79 932.339459,713.9 C931.290211,713.64 933.046243,713.49 932.638203,713.1 Z M813,712 C812.19403,712.358333 811.130597,712.7 810,713 L813,712 Z M1347,712 C1346.19403,712.358333 1345.1306,712.7 1344,713 L1347,712 Z M280,712 C279.19403,712.358333 278.130597,712.7 277,713 L280,712 Z M1584.00901,712.211609 C1585.28546,712.221609 1585.18821,712.631609 1584.50743,712.781609 C1583.69293,712.821609 1583.64431,712.671609 1583,712.671609 C1583.26745,712.501609 1583.74156,712.381609 1584.00901,712.211609 Z M1050.00901,712.211609 C1051.28546,712.221609 1051.18821,712.631609 1050.50743,712.781609 C1049.69293,712.821609 1049.64431,712.671609 1049,712.671609 C1049.26745,712.501609 1049.74156,712.381609 1050.00901,712.211609 Z M517.009007,712.211609 C518.285462,712.221609 518.188208,712.631609 517.507432,712.781609 C516.692933,712.821609 516.644306,712.671609 516,712.671609 C516.267448,712.501609 516.74156,712.381609 517.009007,712.211609 Z M1114,711.09777 C1113.22472,711.39777 1112.98876,711.95777 1111,711.89777 L1114,711.09777 Z M47,711.09777 C46.2247191,711.39777 45.988764,711.95777 44,711.89777 L47,711.09777 Z M580,711.09777 C579.224719,711.39777 578.988764,711.95777 577,711.89777 L580,711.09777 Z M1208.65409,710.678191 C1208.38409,710.998191 1208.17409,710.418191 1208.24409,710.338191 C1208.43409,710.108191 1209.01409,710.238191 1208.65409,710.678191 Z M142.65409,710.678191 C142.38409,710.998191 142.17409,710.418191 142.24409,710.338191 C142.43409,710.108191 143.01409,710.238191 142.65409,710.678191 Z M675.65409,710.678191 C675.38409,710.998191 675.17409,710.418191 675.24409,710.338191 C675.43409,710.108191 676.01409,710.238191 675.65409,710.678191 Z M258.548064,707.317893 C258.359989,708.020215 259.01825,708.428839 260.272081,708.633152 L260.261633,708.620382 C262.058791,708.748077 262.28866,708.326683 263.69922,708.326683 L264.252995,708.518226 L264.290357,708.522961 C264.614566,708.430979 265.206762,708.426561 265.796435,708.386692 L266,708.3701 L264.311507,708.525888 L264.984397,708.620382 C261.557258,710.178565 255.352127,711.748917 248.312981,710.611161 L247.796461,710.523038 C248.412928,710.050566 250.659376,710.139953 250.377264,709.361013 C249.175676,708.4033 246.39635,707.981907 243.073697,707.752056 L243.72151,707.586052 L243.710017,707.573283 L241.381025,707.547744 L239.347835,707.613961 C238.224407,707.642518 237.110163,707.635534 236,707.483896 L241.37998,707.547744 L241.962881,707.533777 C242.352091,707.528191 242.743914,707.530585 243.138348,707.544153 L243.708972,707.572006 L243.50209,707.317893 C247.848704,706.590031 253.846197,707.343432 258.548064,707.317893 Z M791.548064,707.317893 C791.359989,708.020215 792.01825,708.428839 793.272081,708.633152 L793.261633,708.620382 C795.058791,708.748077 795.28866,708.326683 796.69922,708.326683 L797.252995,708.518226 L797.290357,708.522961 C797.614566,708.430979 798.206762,708.426561 798.796435,708.386692 L799,708.3701 L797.311507,708.525888 L797.984397,708.620382 C794.557258,710.178565 788.352127,711.748917 781.312981,710.611161 L780.796461,710.523038 C781.412928,710.050566 783.659376,710.139953 783.377264,709.361013 C782.175676,708.4033 779.39635,707.981907 776.073697,707.752056 L776.72151,707.586052 L776.710017,707.573283 L774.381025,707.547744 L772.347835,707.613961 C771.224407,707.642518 770.110163,707.635534 769,707.483896 L774.37998,707.547744 L774.962881,707.533777 C775.352091,707.528191 775.743914,707.530585 776.138348,707.544153 L776.708972,707.572006 L776.50209,707.317893 C780.848704,706.590031 786.846197,707.343432 791.548064,707.317893 Z M354.98382,710.270868 C355.086301,710.487535 354.685863,710.568399 354.237628,710.636918 L353.966592,710.677535 L353.656966,710.730708 C353.51218,710.760068 353.387152,710.794868 353.303116,710.840868 L352.91477,710.785674 L352.673415,710.743931 C352.211915,710.654536 351.894895,710.524986 352.032341,710.270868 L352.811203,710.330868 L353.303116,710.160868 C354.051234,710.140868 354.184461,710.300868 354.98382,710.270868 Z M887.98382,710.270868 C888.086301,710.487535 887.685863,710.568399 887.237628,710.636918 L886.966592,710.677535 L886.656966,710.730708 C886.51218,710.760068 886.387152,710.794868 886.303116,710.840868 L885.91477,710.785674 L885.673415,710.743931 C885.211915,710.654536 884.894895,710.524986 885.032341,710.270868 L885.811203,710.330868 L886.303116,710.160868 C887.051234,710.140868 887.184461,710.300868 887.98382,710.270868 Z M1421.98382,710.270868 C1422.0863,710.487535 1421.68586,710.568399 1421.23763,710.636918 L1420.96659,710.677535 L1420.65697,710.730708 C1420.51218,710.760068 1420.38715,710.794868 1420.30312,710.840868 L1419.91477,710.785674 L1419.67341,710.743931 C1419.21191,710.654536 1418.89489,710.524986 1419.03234,710.270868 L1419.8112,710.330868 L1420.30312,710.160868 C1421.05123,710.140868 1421.18446,710.300868 1421.98382,710.270868 Z M1416,709.1555 C1417.12939,709.291864 1418.12569,709.510872 1418.80741,709.767446 L1419,709.8445 L1416,709.1555 Z M883,709.1555 C884.129392,709.291864 885.125691,709.510872 885.807405,709.767446 L886,709.8445 L883,709.1555 Z M350,709.1555 C351.129392,709.291864 352.125691,709.510872 352.807405,709.767446 L353,709.8445 L350,709.1555 Z M886.897426,708.25999 C887.476874,708.62999 885.386315,708.34999 885.965763,708.71999 L885.641584,708.738225 C884.982212,708.75736 884.973506,708.619592 885.013301,708.471515 L885.03157,708.407849 C885.046343,708.354981 885.05633,708.303468 885.034101,708.25999 L886.897426,708.25999 Z M353.897426,708.25999 C354.476874,708.62999 352.386315,708.34999 352.965763,708.71999 L352.641584,708.738225 C351.982212,708.75736 351.973506,708.619592 352.013301,708.471515 L352.03157,708.407849 C352.046343,708.354981 352.05633,708.303468 352.034101,708.25999 L353.897426,708.25999 Z M1419.89743,708.25999 C1420.47687,708.62999 1418.38631,708.34999 1418.96576,708.71999 L1418.64158,708.738225 C1417.98221,708.75736 1417.97351,708.619592 1418.0133,708.471515 L1418.03157,708.407849 C1418.04634,708.354981 1418.05633,708.303468 1418.0341,708.25999 L1419.89743,708.25999 Z M1128.16155,705.001513 L1128.36605,705.186703 L1129,705.252064 L1128.55274,705.421668 C1128.03885,705.623654 1127.56964,705.843946 1127.3231,706.123546 C1123.15132,706.417672 1123.86706,708.171529 1118.0695,707.986339 C1117.66051,707.365408 1119.18403,707.321834 1119.32718,706.864306 C1122.26174,706.733584 1123.62166,706.145333 1124.79754,705.491722 L1124.79754,705.502615 C1126.37218,705.872995 1126.39263,704.957939 1128.16155,705.001513 Z M595.161552,705.001513 L595.366052,705.186703 L596,705.252064 L595.552738,705.421668 C595.038853,705.623654 594.56964,705.843946 594.323104,706.123546 C590.151316,706.417672 590.867064,708.171529 585.069504,707.986339 C584.660505,707.365408 586.184026,707.321834 586.327176,706.864306 C589.261743,706.733584 590.621664,706.145333 591.797536,705.491722 L591.797536,705.502615 C593.372182,705.872995 593.392632,704.957939 595.161552,705.001513 Z M61.1615522,705.001513 L61.3660517,705.186703 L62,705.252064 L61.5527381,705.421668 C61.0388526,705.623654 60.5696399,705.843946 60.3231045,706.123546 C56.1513155,706.417672 56.8670636,708.171529 51.069504,707.986339 C50.6605051,707.365408 52.1840261,707.321834 52.3271757,706.864306 C55.2617429,706.733584 56.6216643,706.145333 57.7975362,705.491722 L57.7975362,705.502615 C59.372182,705.872995 59.3926319,704.957939 61.1615522,705.001513 Z M1302.22703,707.09758 L1302.22703,707.10758 C1303.34054,707.08758 1303.61081,707.27758 1304,707.44758 L1303.34054,707.57758 L1303.55676,707.78758 C1302.98378,707.93758 1301.62162,707.89758 1300.44324,707.89758 L1300.67027,707.68758 L1300,707.55758 C1300.35676,707.29758 1302.0973,707.40758 1302.22703,707.09758 Z M768.227027,707.09758 L768.227027,707.10758 C769.340541,707.08758 769.610811,707.27758 770,707.44758 L769.340541,707.57758 L769.556757,707.78758 C768.983784,707.93758 767.621622,707.89758 766.443243,707.89758 L766.67027,707.68758 L766,707.55758 C766.356757,707.29758 768.097297,707.40758 768.227027,707.09758 Z M235.227027,707.09758 L235.227027,707.10758 C236.340541,707.08758 236.610811,707.27758 237,707.44758 L236.340541,707.57758 L236.556757,707.78758 C235.983784,707.93758 234.621622,707.89758 233.443243,707.89758 L233.67027,707.68758 L233,707.55758 C233.356757,707.29758 235.097297,707.40758 235.227027,707.09758 Z M1309.13835,707.544153 L1309.70897,707.572006 L1309.50209,707.317893 C1313.8487,706.590031 1319.8462,707.343432 1324.54806,707.317893 C1324.35999,708.020215 1325.01825,708.428839 1326.27208,708.633152 L1326.26163,708.620382 C1328.05879,708.748077 1328.28866,708.326683 1329.69922,708.326683 L1330.253,708.518226 L1330.29036,708.522961 C1330.61457,708.430979 1331.20676,708.426561 1331.79643,708.386692 L1332,708.3701 L1330.31151,708.525888 L1330.9844,708.620382 C1327.55726,710.178565 1321.35213,711.748917 1314.31298,710.611161 L1313.79646,710.523038 C1314.41293,710.050566 1316.65938,710.139953 1316.37726,709.361013 C1315.17568,708.4033 1312.39635,707.981907 1309.0737,707.752056 L1309.72151,707.586052 L1309.71002,707.573283 L1307.38103,707.547744 L1305.34784,707.613961 C1304.22441,707.642518 1303.11016,707.635534 1302,707.483896 L1307.37998,707.547744 L1307.96288,707.533777 C1308.35209,707.528191 1308.74391,707.530585 1309.13835,707.544153 Z M1332.47514,706.27 C1333.03514,706.31 1332.81514,706.56 1332.88514,706.73 C1331.93514,706.69 1331.94514,706.42 1332.47514,706.27 Z M799.475138,706.27 C800.035138,706.31 799.815138,706.56 799.885138,706.73 C798.935138,706.69 798.945138,706.42 799.475138,706.27 Z M266.475138,706.27 C267.035138,706.31 266.815138,706.56 266.885138,706.73 C265.935138,706.69 265.945138,706.42 266.475138,706.27 Z M1322,706.325 L1322,706.675 C1321.56547,706.635 1321.48501,706.475 1321.01025,706.445 C1320.96018,706.356111 1321.10085,706.330432 1321.27401,706.325823 L1322,706.325 Z M789,706.325 L789,706.675 C788.565475,706.635 788.485007,706.475 788.010248,706.445 C787.960179,706.356111 788.100849,706.330432 788.274014,706.325823 L789,706.325 Z M255,706.325 L255,706.675 C254.565475,706.635 254.485007,706.475 254.010248,706.445 C253.960179,706.356111 254.100849,706.330432 254.274014,706.325823 L255,706.325 Z M643,706.436995 L641.997713,706.501057 C640.995732,706.56387 639.995122,706.606995 639,706.486995 L643,706.436995 Z M1176,706.436995 L1174.99771,706.501057 C1173.99573,706.56387 1172.99512,706.606995 1172,706.486995 L1176,706.436995 Z M110,706.436995 L108.997713,706.501057 C107.995732,706.56387 106.995122,706.606995 106,706.486995 L110,706.436995 Z M1332.16377,705.102227 L1332.3235,705.103371 L1332.49464,705.273371 L1332.99992,705.213371 C1333.00807,705.473371 1332.42129,705.543371 1332.66578,705.893371 C1331.58052,705.940593 1331.64381,705.595346 1331.09123,705.455749 L1331,705.436371 L1331.1644,705.339136 L1331.2949,705.269221 C1331.48076,705.179333 1331.72532,705.106952 1332.16377,705.102227 Z M266.163775,705.102227 L266.323498,705.103371 L266.49464,705.273371 L266.999916,705.213371 C267.008065,705.473371 266.421293,705.543371 266.665782,705.893371 C265.580524,705.940593 265.64381,705.595346 265.091227,705.455749 L265,705.436371 L265.164398,705.339136 L265.294899,705.269221 C265.48076,705.179333 265.725325,705.106952 266.163775,705.102227 Z M799.163775,705.102227 L799.323498,705.103371 L799.49464,705.273371 L799.999916,705.213371 C800.008065,705.473371 799.421293,705.543371 799.665782,705.893371 C798.580524,705.940593 798.64381,705.595346 798.091227,705.455749 L798,705.436371 L798.164398,705.339136 L798.294899,705.269221 C798.48076,705.179333 798.725325,705.106952 799.163775,705.102227 Z M787,705.66788 C786.927273,705.94788 785.315152,705.69788 785,705.66788 C785,705.43788 786.357576,705.51788 785.993939,705.20788 C787.351515,705.12788 785.642424,705.74788 787,705.66788 Z M253,705.66788 C252.927273,705.94788 251.315152,705.69788 251,705.66788 C251,705.43788 252.357576,705.51788 251.993939,705.20788 C253.351515,705.12788 251.642424,705.74788 253,705.66788 Z M1320,705.66788 C1319.92727,705.94788 1318.31515,705.69788 1318,705.66788 C1318,705.43788 1319.35758,705.51788 1318.99394,705.20788 C1320.35152,705.12788 1318.64242,705.74788 1320,705.66788 Z M1302.40558,704.367778 L1302.38828,704.463493 C1302.36481,704.604743 1302.3911,704.727243 1302.99951,704.637243 C1303.02955,705.127243 1301.67002,704.537243 1302.07563,704.177243 C1302.39314,704.165608 1302.42032,704.259257 1302.40558,704.367778 L1302.40558,704.367778 Z M236.405582,704.367778 L236.388281,704.463493 C236.364808,704.604743 236.391098,704.727243 236.999509,704.637243 C237.029554,705.127243 235.670018,704.537243 236.075625,704.177243 C236.393144,704.165608 236.420323,704.259257 236.405582,704.367778 L236.405582,704.367778 Z M768.405582,704.367778 L768.388281,704.463493 C768.364808,704.604743 768.391098,704.727243 768.999509,704.637243 C769.029554,705.127243 767.670018,704.537243 768.075625,704.177243 C768.393144,704.165608 768.420323,704.259257 768.405582,704.367778 L768.405582,704.367778 Z M1442.49752,704.208686 C1442.88549,704.308686 1443.03098,704.468686 1442.9946,704.668686 C1442.41266,704.758686 1441.64885,704.818686 1440.49708,704.778686 L1440.51751,704.699334 C1440.54052,704.569241 1440.48496,704.455352 1440,704.438686 C1440.42434,704.268686 1441.60035,704.268686 1442.49752,704.208686 Z M909.497523,704.208686 C909.885488,704.308686 910.030975,704.468686 909.994603,704.668686 C909.412656,704.758686 908.64885,704.818686 907.49708,704.778686 L907.517511,704.699334 C907.540524,704.569241 907.484956,704.455352 907,704.438686 C907.424337,704.268686 908.600355,704.268686 909.497523,704.208686 Z M375.497523,704.208686 C375.885488,704.308686 376.030975,704.468686 375.994603,704.668686 C375.412656,704.758686 374.64885,704.818686 373.49708,704.778686 C373.545576,704.618686 373.581947,704.458686 373,704.438686 C373.424337,704.268686 374.600355,704.268686 375.497523,704.208686 Z M71,703 C69.6105263,703.543689 67.2,703.728155 65,704 L71,703 Z M604,703 C602.610526,703.543689 600.2,703.728155 598,704 L604,703 Z M1137,703 C1135.61053,703.543689 1133.2,703.728155 1131,704 L1137,703 Z M484.911019,703.383073 C485.179418,703.575247 484.804001,703.614075 484.274146,703.616927 L483.888664,703.614597 L483.62208,703.610932 C483.400442,703.608063 483.1838,703.606551 483,703.613073 C483.324294,703.463073 484.01921,703.403073 484.911019,703.383073 Z M1017.91102,703.383073 C1018.17942,703.575247 1017.804,703.614075 1017.27415,703.616927 L1016.88866,703.614597 L1016.62208,703.610932 C1016.40044,703.608063 1016.1838,703.606551 1016,703.613073 C1016.32429,703.463073 1017.01921,703.403073 1017.91102,703.383073 Z M1551.91102,703.383073 C1552.17942,703.575247 1551.804,703.614075 1551.27415,703.616927 L1550.88866,703.614597 L1550.62208,703.610932 C1550.40044,703.608063 1550.1838,703.606551 1550,703.613073 C1550.32429,703.463073 1551.01921,703.403073 1551.91102,703.383073 Z M428.676688,702.27 C429.916421,702.41 427.142264,702.37 427.833263,702.73 C427.497926,702.71 427.416632,702.62 427,702.62 L427,702.39 C427.853587,702.2 427.823101,702.48 428.676688,702.28 L428.676688,702.27 Z M1494.67669,702.27 C1495.91642,702.41 1493.14226,702.37 1493.83326,702.73 C1493.49793,702.71 1493.41663,702.62 1493,702.62 L1493,702.39 C1493.85359,702.2 1493.8231,702.48 1494.67669,702.28 L1494.67669,702.27 Z M961.676688,702.27 C962.916421,702.41 960.142264,702.37 960.833263,702.73 C960.497926,702.71 960.416632,702.62 960,702.62 L960,702.39 C960.853587,702.2 960.823101,702.48 961.676688,702.28 L961.676688,702.27 Z M956,702.735612 C954.727273,702.715612 954.060606,702.565612 954,702.275612 C955.684848,702.205612 955.830303,702.475612 956,702.735612 Z M423,702.735612 C421.727273,702.715612 421.060606,702.565612 421,702.275612 C422.684848,702.205612 422.830303,702.475612 423,702.735612 Z M1489,702.735612 C1487.72727,702.715612 1487.06061,702.565612 1487,702.275612 C1488.68485,702.205612 1488.8303,702.475612 1489,702.735612 Z M639,700.327646 L639,700.667646 C638.464685,700.693167 638.132707,700.674398 637.845142,700.644585 L637.453125,700.59874 C637.315549,700.582646 637.170732,700.567646 637,700.557646 C637.109756,700.357646 637.853659,700.297646 639,700.327646 Z M107,700.327646 L107,700.667646 C106.464685,700.693167 106.132707,700.674398 105.845142,700.644585 L105.453125,700.59874 C105.315549,700.582646 105.170732,700.567646 105,700.557646 C105.109756,700.357646 105.853659,700.297646 107,700.327646 Z M1172,700.327646 L1172,700.667646 C1171.46468,700.693167 1171.13271,700.674398 1170.84514,700.644585 L1170.45312,700.59874 C1170.31555,700.582646 1170.17073,700.567646 1170,700.557646 C1170.10976,700.357646 1170.85366,700.297646 1172,700.327646 Z" id="ic-creative-line-1" transform="translate(800.000000, 705.000000) scale(1, -1) translate(-800.000000, -705.000000) "></path>
            </g>
        </g>
    </g>
</svg>